%TF.GenerationSoftware,KiCad,Pcbnew,9.0.7*%
%TF.CreationDate,2026-03-18T21:48:01+01:00*%
%TF.ProjectId,filament-humidity-sensor,66696c61-6d65-46e7-942d-68756d696469,rev?*%
%TF.SameCoordinates,Original*%
%TF.FileFunction,Legend,Top*%
%TF.FilePolarity,Positive*%
%FSLAX46Y46*%
G04 Gerber Fmt 4.6, Leading zero omitted, Abs format (unit mm)*
G04 Created by KiCad (PCBNEW 9.0.7) date 2026-03-18 21:48:01*
%MOMM*%
%LPD*%
G01*
G04 APERTURE LIST*
%ADD10C,0.200000*%
%ADD11C,0.100000*%
%ADD12C,0.150000*%
%ADD13C,0.120000*%
%ADD14C,0.250000*%
G04 APERTURE END LIST*
D10*
X127090608Y-81993488D02*
X127900132Y-81993488D01*
X127900132Y-81993488D02*
X127995370Y-82031583D01*
X127995370Y-82031583D02*
X128042989Y-82069679D01*
X128042989Y-82069679D02*
X128090608Y-82145869D01*
X128090608Y-82145869D02*
X128090608Y-82260155D01*
X128090608Y-82260155D02*
X128042989Y-82336345D01*
X127709656Y-81993488D02*
X127757275Y-82069679D01*
X127757275Y-82069679D02*
X127757275Y-82222060D01*
X127757275Y-82222060D02*
X127709656Y-82298250D01*
X127709656Y-82298250D02*
X127662036Y-82336345D01*
X127662036Y-82336345D02*
X127566798Y-82374441D01*
X127566798Y-82374441D02*
X127281084Y-82374441D01*
X127281084Y-82374441D02*
X127185846Y-82336345D01*
X127185846Y-82336345D02*
X127138227Y-82298250D01*
X127138227Y-82298250D02*
X127090608Y-82222060D01*
X127090608Y-82222060D02*
X127090608Y-82069679D01*
X127090608Y-82069679D02*
X127138227Y-81993488D01*
X127757275Y-81612535D02*
X127090608Y-81612535D01*
X126757275Y-81612535D02*
X126804894Y-81650631D01*
X126804894Y-81650631D02*
X126852513Y-81612535D01*
X126852513Y-81612535D02*
X126804894Y-81574440D01*
X126804894Y-81574440D02*
X126757275Y-81612535D01*
X126757275Y-81612535D02*
X126852513Y-81612535D01*
X127090608Y-81345869D02*
X127090608Y-81041107D01*
X126757275Y-81231583D02*
X127614417Y-81231583D01*
X127614417Y-81231583D02*
X127709656Y-81193488D01*
X127709656Y-81193488D02*
X127757275Y-81117298D01*
X127757275Y-81117298D02*
X127757275Y-81041107D01*
X127757275Y-80774440D02*
X126757275Y-80774440D01*
X127757275Y-80431583D02*
X127233465Y-80431583D01*
X127233465Y-80431583D02*
X127138227Y-80469678D01*
X127138227Y-80469678D02*
X127090608Y-80545869D01*
X127090608Y-80545869D02*
X127090608Y-80660155D01*
X127090608Y-80660155D02*
X127138227Y-80736345D01*
X127138227Y-80736345D02*
X127185846Y-80774440D01*
X127090608Y-79707773D02*
X127757275Y-79707773D01*
X127090608Y-80050630D02*
X127614417Y-80050630D01*
X127614417Y-80050630D02*
X127709656Y-80012535D01*
X127709656Y-80012535D02*
X127757275Y-79936345D01*
X127757275Y-79936345D02*
X127757275Y-79822059D01*
X127757275Y-79822059D02*
X127709656Y-79745868D01*
X127709656Y-79745868D02*
X127662036Y-79707773D01*
X127757275Y-79326820D02*
X126757275Y-79326820D01*
X127138227Y-79326820D02*
X127090608Y-79250630D01*
X127090608Y-79250630D02*
X127090608Y-79098249D01*
X127090608Y-79098249D02*
X127138227Y-79022058D01*
X127138227Y-79022058D02*
X127185846Y-78983963D01*
X127185846Y-78983963D02*
X127281084Y-78945868D01*
X127281084Y-78945868D02*
X127566798Y-78945868D01*
X127566798Y-78945868D02*
X127662036Y-78983963D01*
X127662036Y-78983963D02*
X127709656Y-79022058D01*
X127709656Y-79022058D02*
X127757275Y-79098249D01*
X127757275Y-79098249D02*
X127757275Y-79250630D01*
X127757275Y-79250630D02*
X127709656Y-79326820D01*
X127662036Y-78603010D02*
X127709656Y-78564915D01*
X127709656Y-78564915D02*
X127757275Y-78603010D01*
X127757275Y-78603010D02*
X127709656Y-78641106D01*
X127709656Y-78641106D02*
X127662036Y-78603010D01*
X127662036Y-78603010D02*
X127757275Y-78603010D01*
X127709656Y-77879201D02*
X127757275Y-77955392D01*
X127757275Y-77955392D02*
X127757275Y-78107773D01*
X127757275Y-78107773D02*
X127709656Y-78183963D01*
X127709656Y-78183963D02*
X127662036Y-78222058D01*
X127662036Y-78222058D02*
X127566798Y-78260154D01*
X127566798Y-78260154D02*
X127281084Y-78260154D01*
X127281084Y-78260154D02*
X127185846Y-78222058D01*
X127185846Y-78222058D02*
X127138227Y-78183963D01*
X127138227Y-78183963D02*
X127090608Y-78107773D01*
X127090608Y-78107773D02*
X127090608Y-77955392D01*
X127090608Y-77955392D02*
X127138227Y-77879201D01*
X127757275Y-77422059D02*
X127709656Y-77498249D01*
X127709656Y-77498249D02*
X127662036Y-77536344D01*
X127662036Y-77536344D02*
X127566798Y-77574440D01*
X127566798Y-77574440D02*
X127281084Y-77574440D01*
X127281084Y-77574440D02*
X127185846Y-77536344D01*
X127185846Y-77536344D02*
X127138227Y-77498249D01*
X127138227Y-77498249D02*
X127090608Y-77422059D01*
X127090608Y-77422059D02*
X127090608Y-77307773D01*
X127090608Y-77307773D02*
X127138227Y-77231582D01*
X127138227Y-77231582D02*
X127185846Y-77193487D01*
X127185846Y-77193487D02*
X127281084Y-77155392D01*
X127281084Y-77155392D02*
X127566798Y-77155392D01*
X127566798Y-77155392D02*
X127662036Y-77193487D01*
X127662036Y-77193487D02*
X127709656Y-77231582D01*
X127709656Y-77231582D02*
X127757275Y-77307773D01*
X127757275Y-77307773D02*
X127757275Y-77422059D01*
X127757275Y-76812534D02*
X127090608Y-76812534D01*
X127185846Y-76812534D02*
X127138227Y-76774439D01*
X127138227Y-76774439D02*
X127090608Y-76698249D01*
X127090608Y-76698249D02*
X127090608Y-76583963D01*
X127090608Y-76583963D02*
X127138227Y-76507772D01*
X127138227Y-76507772D02*
X127233465Y-76469677D01*
X127233465Y-76469677D02*
X127757275Y-76469677D01*
X127233465Y-76469677D02*
X127138227Y-76431582D01*
X127138227Y-76431582D02*
X127090608Y-76355391D01*
X127090608Y-76355391D02*
X127090608Y-76241106D01*
X127090608Y-76241106D02*
X127138227Y-76164915D01*
X127138227Y-76164915D02*
X127233465Y-76126820D01*
X127233465Y-76126820D02*
X127757275Y-76126820D01*
X126709656Y-75174439D02*
X127995370Y-75860153D01*
X127757275Y-74907772D02*
X127090608Y-74907772D01*
X127185846Y-74907772D02*
X127138227Y-74869677D01*
X127138227Y-74869677D02*
X127090608Y-74793487D01*
X127090608Y-74793487D02*
X127090608Y-74679201D01*
X127090608Y-74679201D02*
X127138227Y-74603010D01*
X127138227Y-74603010D02*
X127233465Y-74564915D01*
X127233465Y-74564915D02*
X127757275Y-74564915D01*
X127233465Y-74564915D02*
X127138227Y-74526820D01*
X127138227Y-74526820D02*
X127090608Y-74450629D01*
X127090608Y-74450629D02*
X127090608Y-74336344D01*
X127090608Y-74336344D02*
X127138227Y-74260153D01*
X127138227Y-74260153D02*
X127233465Y-74222058D01*
X127233465Y-74222058D02*
X127757275Y-74222058D01*
X127090608Y-73498248D02*
X127757275Y-73498248D01*
X127090608Y-73841105D02*
X127614417Y-73841105D01*
X127614417Y-73841105D02*
X127709656Y-73803010D01*
X127709656Y-73803010D02*
X127757275Y-73726820D01*
X127757275Y-73726820D02*
X127757275Y-73612534D01*
X127757275Y-73612534D02*
X127709656Y-73536343D01*
X127709656Y-73536343D02*
X127662036Y-73498248D01*
X127757275Y-73003010D02*
X127709656Y-73079200D01*
X127709656Y-73079200D02*
X127614417Y-73117295D01*
X127614417Y-73117295D02*
X126757275Y-73117295D01*
X127090608Y-72812533D02*
X127090608Y-72507771D01*
X126757275Y-72698247D02*
X127614417Y-72698247D01*
X127614417Y-72698247D02*
X127709656Y-72660152D01*
X127709656Y-72660152D02*
X127757275Y-72583962D01*
X127757275Y-72583962D02*
X127757275Y-72507771D01*
X127757275Y-72241104D02*
X127090608Y-72241104D01*
X126757275Y-72241104D02*
X126804894Y-72279200D01*
X126804894Y-72279200D02*
X126852513Y-72241104D01*
X126852513Y-72241104D02*
X126804894Y-72203009D01*
X126804894Y-72203009D02*
X126757275Y-72241104D01*
X126757275Y-72241104D02*
X126852513Y-72241104D01*
X127709656Y-71517295D02*
X127757275Y-71593486D01*
X127757275Y-71593486D02*
X127757275Y-71745867D01*
X127757275Y-71745867D02*
X127709656Y-71822057D01*
X127709656Y-71822057D02*
X127662036Y-71860152D01*
X127662036Y-71860152D02*
X127566798Y-71898248D01*
X127566798Y-71898248D02*
X127281084Y-71898248D01*
X127281084Y-71898248D02*
X127185846Y-71860152D01*
X127185846Y-71860152D02*
X127138227Y-71822057D01*
X127138227Y-71822057D02*
X127090608Y-71745867D01*
X127090608Y-71745867D02*
X127090608Y-71593486D01*
X127090608Y-71593486D02*
X127138227Y-71517295D01*
X127757275Y-71060153D02*
X127709656Y-71136343D01*
X127709656Y-71136343D02*
X127662036Y-71174438D01*
X127662036Y-71174438D02*
X127566798Y-71212534D01*
X127566798Y-71212534D02*
X127281084Y-71212534D01*
X127281084Y-71212534D02*
X127185846Y-71174438D01*
X127185846Y-71174438D02*
X127138227Y-71136343D01*
X127138227Y-71136343D02*
X127090608Y-71060153D01*
X127090608Y-71060153D02*
X127090608Y-70945867D01*
X127090608Y-70945867D02*
X127138227Y-70869676D01*
X127138227Y-70869676D02*
X127185846Y-70831581D01*
X127185846Y-70831581D02*
X127281084Y-70793486D01*
X127281084Y-70793486D02*
X127566798Y-70793486D01*
X127566798Y-70793486D02*
X127662036Y-70831581D01*
X127662036Y-70831581D02*
X127709656Y-70869676D01*
X127709656Y-70869676D02*
X127757275Y-70945867D01*
X127757275Y-70945867D02*
X127757275Y-71060153D01*
X127757275Y-70336343D02*
X127709656Y-70412533D01*
X127709656Y-70412533D02*
X127614417Y-70450628D01*
X127614417Y-70450628D02*
X126757275Y-70450628D01*
X127757275Y-69917295D02*
X127709656Y-69993485D01*
X127709656Y-69993485D02*
X127662036Y-70031580D01*
X127662036Y-70031580D02*
X127566798Y-70069676D01*
X127566798Y-70069676D02*
X127281084Y-70069676D01*
X127281084Y-70069676D02*
X127185846Y-70031580D01*
X127185846Y-70031580D02*
X127138227Y-69993485D01*
X127138227Y-69993485D02*
X127090608Y-69917295D01*
X127090608Y-69917295D02*
X127090608Y-69803009D01*
X127090608Y-69803009D02*
X127138227Y-69726818D01*
X127138227Y-69726818D02*
X127185846Y-69688723D01*
X127185846Y-69688723D02*
X127281084Y-69650628D01*
X127281084Y-69650628D02*
X127566798Y-69650628D01*
X127566798Y-69650628D02*
X127662036Y-69688723D01*
X127662036Y-69688723D02*
X127709656Y-69726818D01*
X127709656Y-69726818D02*
X127757275Y-69803009D01*
X127757275Y-69803009D02*
X127757275Y-69917295D01*
X127757275Y-69307770D02*
X127090608Y-69307770D01*
X127281084Y-69307770D02*
X127185846Y-69269675D01*
X127185846Y-69269675D02*
X127138227Y-69231580D01*
X127138227Y-69231580D02*
X127090608Y-69155389D01*
X127090608Y-69155389D02*
X127090608Y-69079199D01*
X127757275Y-68888723D02*
X127090608Y-68469675D01*
X127090608Y-68888723D02*
X127757275Y-68469675D01*
X126709656Y-67593485D02*
X127995370Y-68279199D01*
X127090608Y-67441104D02*
X127090608Y-67136342D01*
X127757275Y-67326818D02*
X126900132Y-67326818D01*
X126900132Y-67326818D02*
X126804894Y-67288723D01*
X126804894Y-67288723D02*
X126757275Y-67212533D01*
X126757275Y-67212533D02*
X126757275Y-67136342D01*
X127757275Y-66869675D02*
X127090608Y-66869675D01*
X126757275Y-66869675D02*
X126804894Y-66907771D01*
X126804894Y-66907771D02*
X126852513Y-66869675D01*
X126852513Y-66869675D02*
X126804894Y-66831580D01*
X126804894Y-66831580D02*
X126757275Y-66869675D01*
X126757275Y-66869675D02*
X126852513Y-66869675D01*
X127757275Y-66374438D02*
X127709656Y-66450628D01*
X127709656Y-66450628D02*
X127614417Y-66488723D01*
X127614417Y-66488723D02*
X126757275Y-66488723D01*
X127757275Y-65726818D02*
X127233465Y-65726818D01*
X127233465Y-65726818D02*
X127138227Y-65764913D01*
X127138227Y-65764913D02*
X127090608Y-65841104D01*
X127090608Y-65841104D02*
X127090608Y-65993485D01*
X127090608Y-65993485D02*
X127138227Y-66069675D01*
X127709656Y-65726818D02*
X127757275Y-65803009D01*
X127757275Y-65803009D02*
X127757275Y-65993485D01*
X127757275Y-65993485D02*
X127709656Y-66069675D01*
X127709656Y-66069675D02*
X127614417Y-66107771D01*
X127614417Y-66107771D02*
X127519179Y-66107771D01*
X127519179Y-66107771D02*
X127423941Y-66069675D01*
X127423941Y-66069675D02*
X127376322Y-65993485D01*
X127376322Y-65993485D02*
X127376322Y-65803009D01*
X127376322Y-65803009D02*
X127328703Y-65726818D01*
X127757275Y-65345865D02*
X127090608Y-65345865D01*
X127185846Y-65345865D02*
X127138227Y-65307770D01*
X127138227Y-65307770D02*
X127090608Y-65231580D01*
X127090608Y-65231580D02*
X127090608Y-65117294D01*
X127090608Y-65117294D02*
X127138227Y-65041103D01*
X127138227Y-65041103D02*
X127233465Y-65003008D01*
X127233465Y-65003008D02*
X127757275Y-65003008D01*
X127233465Y-65003008D02*
X127138227Y-64964913D01*
X127138227Y-64964913D02*
X127090608Y-64888722D01*
X127090608Y-64888722D02*
X127090608Y-64774437D01*
X127090608Y-64774437D02*
X127138227Y-64698246D01*
X127138227Y-64698246D02*
X127233465Y-64660151D01*
X127233465Y-64660151D02*
X127757275Y-64660151D01*
X127709656Y-63974436D02*
X127757275Y-64050627D01*
X127757275Y-64050627D02*
X127757275Y-64203008D01*
X127757275Y-64203008D02*
X127709656Y-64279198D01*
X127709656Y-64279198D02*
X127614417Y-64317294D01*
X127614417Y-64317294D02*
X127233465Y-64317294D01*
X127233465Y-64317294D02*
X127138227Y-64279198D01*
X127138227Y-64279198D02*
X127090608Y-64203008D01*
X127090608Y-64203008D02*
X127090608Y-64050627D01*
X127090608Y-64050627D02*
X127138227Y-63974436D01*
X127138227Y-63974436D02*
X127233465Y-63936341D01*
X127233465Y-63936341D02*
X127328703Y-63936341D01*
X127328703Y-63936341D02*
X127423941Y-64317294D01*
X127090608Y-63593484D02*
X127757275Y-63593484D01*
X127185846Y-63593484D02*
X127138227Y-63555389D01*
X127138227Y-63555389D02*
X127090608Y-63479199D01*
X127090608Y-63479199D02*
X127090608Y-63364913D01*
X127090608Y-63364913D02*
X127138227Y-63288722D01*
X127138227Y-63288722D02*
X127233465Y-63250627D01*
X127233465Y-63250627D02*
X127757275Y-63250627D01*
X127090608Y-62983960D02*
X127090608Y-62679198D01*
X126757275Y-62869674D02*
X127614417Y-62869674D01*
X127614417Y-62869674D02*
X127709656Y-62831579D01*
X127709656Y-62831579D02*
X127757275Y-62755389D01*
X127757275Y-62755389D02*
X127757275Y-62679198D01*
X127376322Y-62412531D02*
X127376322Y-61803008D01*
X127757275Y-61422055D02*
X126757275Y-61422055D01*
X127757275Y-61079198D02*
X127233465Y-61079198D01*
X127233465Y-61079198D02*
X127138227Y-61117293D01*
X127138227Y-61117293D02*
X127090608Y-61193484D01*
X127090608Y-61193484D02*
X127090608Y-61307770D01*
X127090608Y-61307770D02*
X127138227Y-61383960D01*
X127138227Y-61383960D02*
X127185846Y-61422055D01*
X127090608Y-60355388D02*
X127757275Y-60355388D01*
X127090608Y-60698245D02*
X127614417Y-60698245D01*
X127614417Y-60698245D02*
X127709656Y-60660150D01*
X127709656Y-60660150D02*
X127757275Y-60583960D01*
X127757275Y-60583960D02*
X127757275Y-60469674D01*
X127757275Y-60469674D02*
X127709656Y-60393483D01*
X127709656Y-60393483D02*
X127662036Y-60355388D01*
X127757275Y-59974435D02*
X127090608Y-59974435D01*
X127185846Y-59974435D02*
X127138227Y-59936340D01*
X127138227Y-59936340D02*
X127090608Y-59860150D01*
X127090608Y-59860150D02*
X127090608Y-59745864D01*
X127090608Y-59745864D02*
X127138227Y-59669673D01*
X127138227Y-59669673D02*
X127233465Y-59631578D01*
X127233465Y-59631578D02*
X127757275Y-59631578D01*
X127233465Y-59631578D02*
X127138227Y-59593483D01*
X127138227Y-59593483D02*
X127090608Y-59517292D01*
X127090608Y-59517292D02*
X127090608Y-59403007D01*
X127090608Y-59403007D02*
X127138227Y-59326816D01*
X127138227Y-59326816D02*
X127233465Y-59288721D01*
X127233465Y-59288721D02*
X127757275Y-59288721D01*
X127757275Y-58907768D02*
X127090608Y-58907768D01*
X126757275Y-58907768D02*
X126804894Y-58945864D01*
X126804894Y-58945864D02*
X126852513Y-58907768D01*
X126852513Y-58907768D02*
X126804894Y-58869673D01*
X126804894Y-58869673D02*
X126757275Y-58907768D01*
X126757275Y-58907768D02*
X126852513Y-58907768D01*
X127757275Y-58183959D02*
X126757275Y-58183959D01*
X127709656Y-58183959D02*
X127757275Y-58260150D01*
X127757275Y-58260150D02*
X127757275Y-58412531D01*
X127757275Y-58412531D02*
X127709656Y-58488721D01*
X127709656Y-58488721D02*
X127662036Y-58526816D01*
X127662036Y-58526816D02*
X127566798Y-58564912D01*
X127566798Y-58564912D02*
X127281084Y-58564912D01*
X127281084Y-58564912D02*
X127185846Y-58526816D01*
X127185846Y-58526816D02*
X127138227Y-58488721D01*
X127138227Y-58488721D02*
X127090608Y-58412531D01*
X127090608Y-58412531D02*
X127090608Y-58260150D01*
X127090608Y-58260150D02*
X127138227Y-58183959D01*
X127757275Y-57803006D02*
X127090608Y-57803006D01*
X126757275Y-57803006D02*
X126804894Y-57841102D01*
X126804894Y-57841102D02*
X126852513Y-57803006D01*
X126852513Y-57803006D02*
X126804894Y-57764911D01*
X126804894Y-57764911D02*
X126757275Y-57803006D01*
X126757275Y-57803006D02*
X126852513Y-57803006D01*
X127090608Y-57536340D02*
X127090608Y-57231578D01*
X126757275Y-57422054D02*
X127614417Y-57422054D01*
X127614417Y-57422054D02*
X127709656Y-57383959D01*
X127709656Y-57383959D02*
X127757275Y-57307769D01*
X127757275Y-57307769D02*
X127757275Y-57231578D01*
X127090608Y-57041102D02*
X127757275Y-56850626D01*
X127090608Y-56660149D02*
X127757275Y-56850626D01*
X127757275Y-56850626D02*
X127995370Y-56926816D01*
X127995370Y-56926816D02*
X128042989Y-56964911D01*
X128042989Y-56964911D02*
X128090608Y-57041102D01*
X127376322Y-56355387D02*
X127376322Y-55745864D01*
X127709656Y-55403007D02*
X127757275Y-55326816D01*
X127757275Y-55326816D02*
X127757275Y-55174435D01*
X127757275Y-55174435D02*
X127709656Y-55098245D01*
X127709656Y-55098245D02*
X127614417Y-55060149D01*
X127614417Y-55060149D02*
X127566798Y-55060149D01*
X127566798Y-55060149D02*
X127471560Y-55098245D01*
X127471560Y-55098245D02*
X127423941Y-55174435D01*
X127423941Y-55174435D02*
X127423941Y-55288721D01*
X127423941Y-55288721D02*
X127376322Y-55364911D01*
X127376322Y-55364911D02*
X127281084Y-55403007D01*
X127281084Y-55403007D02*
X127233465Y-55403007D01*
X127233465Y-55403007D02*
X127138227Y-55364911D01*
X127138227Y-55364911D02*
X127090608Y-55288721D01*
X127090608Y-55288721D02*
X127090608Y-55174435D01*
X127090608Y-55174435D02*
X127138227Y-55098245D01*
X127709656Y-54412530D02*
X127757275Y-54488721D01*
X127757275Y-54488721D02*
X127757275Y-54641102D01*
X127757275Y-54641102D02*
X127709656Y-54717292D01*
X127709656Y-54717292D02*
X127614417Y-54755388D01*
X127614417Y-54755388D02*
X127233465Y-54755388D01*
X127233465Y-54755388D02*
X127138227Y-54717292D01*
X127138227Y-54717292D02*
X127090608Y-54641102D01*
X127090608Y-54641102D02*
X127090608Y-54488721D01*
X127090608Y-54488721D02*
X127138227Y-54412530D01*
X127138227Y-54412530D02*
X127233465Y-54374435D01*
X127233465Y-54374435D02*
X127328703Y-54374435D01*
X127328703Y-54374435D02*
X127423941Y-54755388D01*
X127090608Y-54031578D02*
X127757275Y-54031578D01*
X127185846Y-54031578D02*
X127138227Y-53993483D01*
X127138227Y-53993483D02*
X127090608Y-53917293D01*
X127090608Y-53917293D02*
X127090608Y-53803007D01*
X127090608Y-53803007D02*
X127138227Y-53726816D01*
X127138227Y-53726816D02*
X127233465Y-53688721D01*
X127233465Y-53688721D02*
X127757275Y-53688721D01*
X127709656Y-53345864D02*
X127757275Y-53269673D01*
X127757275Y-53269673D02*
X127757275Y-53117292D01*
X127757275Y-53117292D02*
X127709656Y-53041102D01*
X127709656Y-53041102D02*
X127614417Y-53003006D01*
X127614417Y-53003006D02*
X127566798Y-53003006D01*
X127566798Y-53003006D02*
X127471560Y-53041102D01*
X127471560Y-53041102D02*
X127423941Y-53117292D01*
X127423941Y-53117292D02*
X127423941Y-53231578D01*
X127423941Y-53231578D02*
X127376322Y-53307768D01*
X127376322Y-53307768D02*
X127281084Y-53345864D01*
X127281084Y-53345864D02*
X127233465Y-53345864D01*
X127233465Y-53345864D02*
X127138227Y-53307768D01*
X127138227Y-53307768D02*
X127090608Y-53231578D01*
X127090608Y-53231578D02*
X127090608Y-53117292D01*
X127090608Y-53117292D02*
X127138227Y-53041102D01*
X127757275Y-52545864D02*
X127709656Y-52622054D01*
X127709656Y-52622054D02*
X127662036Y-52660149D01*
X127662036Y-52660149D02*
X127566798Y-52698245D01*
X127566798Y-52698245D02*
X127281084Y-52698245D01*
X127281084Y-52698245D02*
X127185846Y-52660149D01*
X127185846Y-52660149D02*
X127138227Y-52622054D01*
X127138227Y-52622054D02*
X127090608Y-52545864D01*
X127090608Y-52545864D02*
X127090608Y-52431578D01*
X127090608Y-52431578D02*
X127138227Y-52355387D01*
X127138227Y-52355387D02*
X127185846Y-52317292D01*
X127185846Y-52317292D02*
X127281084Y-52279197D01*
X127281084Y-52279197D02*
X127566798Y-52279197D01*
X127566798Y-52279197D02*
X127662036Y-52317292D01*
X127662036Y-52317292D02*
X127709656Y-52355387D01*
X127709656Y-52355387D02*
X127757275Y-52431578D01*
X127757275Y-52431578D02*
X127757275Y-52545864D01*
X127757275Y-51936339D02*
X127090608Y-51936339D01*
X127281084Y-51936339D02*
X127185846Y-51898244D01*
X127185846Y-51898244D02*
X127138227Y-51860149D01*
X127138227Y-51860149D02*
X127090608Y-51783958D01*
X127090608Y-51783958D02*
X127090608Y-51707768D01*
X129367219Y-55479197D02*
X128891028Y-55745864D01*
X129367219Y-55936340D02*
X128367219Y-55936340D01*
X128367219Y-55936340D02*
X128367219Y-55631578D01*
X128367219Y-55631578D02*
X128414838Y-55555388D01*
X128414838Y-55555388D02*
X128462457Y-55517293D01*
X128462457Y-55517293D02*
X128557695Y-55479197D01*
X128557695Y-55479197D02*
X128700552Y-55479197D01*
X128700552Y-55479197D02*
X128795790Y-55517293D01*
X128795790Y-55517293D02*
X128843409Y-55555388D01*
X128843409Y-55555388D02*
X128891028Y-55631578D01*
X128891028Y-55631578D02*
X128891028Y-55936340D01*
X128843409Y-55136340D02*
X128843409Y-54869674D01*
X129367219Y-54755388D02*
X129367219Y-55136340D01*
X129367219Y-55136340D02*
X128367219Y-55136340D01*
X128367219Y-55136340D02*
X128367219Y-54755388D01*
X128367219Y-54526816D02*
X129367219Y-54260149D01*
X129367219Y-54260149D02*
X128367219Y-53993483D01*
X128367219Y-53574435D02*
X128367219Y-53498245D01*
X128367219Y-53498245D02*
X128414838Y-53422054D01*
X128414838Y-53422054D02*
X128462457Y-53383959D01*
X128462457Y-53383959D02*
X128557695Y-53345864D01*
X128557695Y-53345864D02*
X128748171Y-53307769D01*
X128748171Y-53307769D02*
X128986266Y-53307769D01*
X128986266Y-53307769D02*
X129176742Y-53345864D01*
X129176742Y-53345864D02*
X129271980Y-53383959D01*
X129271980Y-53383959D02*
X129319600Y-53422054D01*
X129319600Y-53422054D02*
X129367219Y-53498245D01*
X129367219Y-53498245D02*
X129367219Y-53574435D01*
X129367219Y-53574435D02*
X129319600Y-53650626D01*
X129319600Y-53650626D02*
X129271980Y-53688721D01*
X129271980Y-53688721D02*
X129176742Y-53726816D01*
X129176742Y-53726816D02*
X128986266Y-53764912D01*
X128986266Y-53764912D02*
X128748171Y-53764912D01*
X128748171Y-53764912D02*
X128557695Y-53726816D01*
X128557695Y-53726816D02*
X128462457Y-53688721D01*
X128462457Y-53688721D02*
X128414838Y-53650626D01*
X128414838Y-53650626D02*
X128367219Y-53574435D01*
X128367219Y-52812530D02*
X128367219Y-52736340D01*
X128367219Y-52736340D02*
X128414838Y-52660149D01*
X128414838Y-52660149D02*
X128462457Y-52622054D01*
X128462457Y-52622054D02*
X128557695Y-52583959D01*
X128557695Y-52583959D02*
X128748171Y-52545864D01*
X128748171Y-52545864D02*
X128986266Y-52545864D01*
X128986266Y-52545864D02*
X129176742Y-52583959D01*
X129176742Y-52583959D02*
X129271980Y-52622054D01*
X129271980Y-52622054D02*
X129319600Y-52660149D01*
X129319600Y-52660149D02*
X129367219Y-52736340D01*
X129367219Y-52736340D02*
X129367219Y-52812530D01*
X129367219Y-52812530D02*
X129319600Y-52888721D01*
X129319600Y-52888721D02*
X129271980Y-52926816D01*
X129271980Y-52926816D02*
X129176742Y-52964911D01*
X129176742Y-52964911D02*
X128986266Y-53003007D01*
X128986266Y-53003007D02*
X128748171Y-53003007D01*
X128748171Y-53003007D02*
X128557695Y-52964911D01*
X128557695Y-52964911D02*
X128462457Y-52926816D01*
X128462457Y-52926816D02*
X128414838Y-52888721D01*
X128414838Y-52888721D02*
X128367219Y-52812530D01*
X129367219Y-51783959D02*
X129367219Y-52241102D01*
X129367219Y-52012530D02*
X128367219Y-52012530D01*
X128367219Y-52012530D02*
X128510076Y-52088721D01*
X128510076Y-52088721D02*
X128605314Y-52164911D01*
X128605314Y-52164911D02*
X128652933Y-52241102D01*
D11*
X156372419Y-97696115D02*
X155372419Y-97696115D01*
X155372419Y-97696115D02*
X156372419Y-97124687D01*
X156372419Y-97124687D02*
X155372419Y-97124687D01*
X156372419Y-96077068D02*
X155896228Y-96410401D01*
X156372419Y-96648496D02*
X155372419Y-96648496D01*
X155372419Y-96648496D02*
X155372419Y-96267544D01*
X155372419Y-96267544D02*
X155420038Y-96172306D01*
X155420038Y-96172306D02*
X155467657Y-96124687D01*
X155467657Y-96124687D02*
X155562895Y-96077068D01*
X155562895Y-96077068D02*
X155705752Y-96077068D01*
X155705752Y-96077068D02*
X155800990Y-96124687D01*
X155800990Y-96124687D02*
X155848609Y-96172306D01*
X155848609Y-96172306D02*
X155896228Y-96267544D01*
X155896228Y-96267544D02*
X155896228Y-96648496D01*
X156324800Y-95696115D02*
X156372419Y-95553258D01*
X156372419Y-95553258D02*
X156372419Y-95315163D01*
X156372419Y-95315163D02*
X156324800Y-95219925D01*
X156324800Y-95219925D02*
X156277180Y-95172306D01*
X156277180Y-95172306D02*
X156181942Y-95124687D01*
X156181942Y-95124687D02*
X156086704Y-95124687D01*
X156086704Y-95124687D02*
X155991466Y-95172306D01*
X155991466Y-95172306D02*
X155943847Y-95219925D01*
X155943847Y-95219925D02*
X155896228Y-95315163D01*
X155896228Y-95315163D02*
X155848609Y-95505639D01*
X155848609Y-95505639D02*
X155800990Y-95600877D01*
X155800990Y-95600877D02*
X155753371Y-95648496D01*
X155753371Y-95648496D02*
X155658133Y-95696115D01*
X155658133Y-95696115D02*
X155562895Y-95696115D01*
X155562895Y-95696115D02*
X155467657Y-95648496D01*
X155467657Y-95648496D02*
X155420038Y-95600877D01*
X155420038Y-95600877D02*
X155372419Y-95505639D01*
X155372419Y-95505639D02*
X155372419Y-95267544D01*
X155372419Y-95267544D02*
X155420038Y-95124687D01*
X155372419Y-94838972D02*
X155372419Y-94267544D01*
X156372419Y-94553258D02*
X155372419Y-94553258D01*
X156372419Y-93172305D02*
X155372419Y-93172305D01*
X156324800Y-91981829D02*
X156372419Y-91838972D01*
X156372419Y-91838972D02*
X156372419Y-91600877D01*
X156372419Y-91600877D02*
X156324800Y-91505639D01*
X156324800Y-91505639D02*
X156277180Y-91458020D01*
X156277180Y-91458020D02*
X156181942Y-91410401D01*
X156181942Y-91410401D02*
X156086704Y-91410401D01*
X156086704Y-91410401D02*
X155991466Y-91458020D01*
X155991466Y-91458020D02*
X155943847Y-91505639D01*
X155943847Y-91505639D02*
X155896228Y-91600877D01*
X155896228Y-91600877D02*
X155848609Y-91791353D01*
X155848609Y-91791353D02*
X155800990Y-91886591D01*
X155800990Y-91886591D02*
X155753371Y-91934210D01*
X155753371Y-91934210D02*
X155658133Y-91981829D01*
X155658133Y-91981829D02*
X155562895Y-91981829D01*
X155562895Y-91981829D02*
X155467657Y-91934210D01*
X155467657Y-91934210D02*
X155420038Y-91886591D01*
X155420038Y-91886591D02*
X155372419Y-91791353D01*
X155372419Y-91791353D02*
X155372419Y-91553258D01*
X155372419Y-91553258D02*
X155420038Y-91410401D01*
X155372419Y-91077067D02*
X156372419Y-90838972D01*
X156372419Y-90838972D02*
X155658133Y-90648496D01*
X155658133Y-90648496D02*
X156372419Y-90458020D01*
X156372419Y-90458020D02*
X155372419Y-90219925D01*
X156277180Y-89267544D02*
X156324800Y-89315163D01*
X156324800Y-89315163D02*
X156372419Y-89458020D01*
X156372419Y-89458020D02*
X156372419Y-89553258D01*
X156372419Y-89553258D02*
X156324800Y-89696115D01*
X156324800Y-89696115D02*
X156229561Y-89791353D01*
X156229561Y-89791353D02*
X156134323Y-89838972D01*
X156134323Y-89838972D02*
X155943847Y-89886591D01*
X155943847Y-89886591D02*
X155800990Y-89886591D01*
X155800990Y-89886591D02*
X155610514Y-89838972D01*
X155610514Y-89838972D02*
X155515276Y-89791353D01*
X155515276Y-89791353D02*
X155420038Y-89696115D01*
X155420038Y-89696115D02*
X155372419Y-89553258D01*
X155372419Y-89553258D02*
X155372419Y-89458020D01*
X155372419Y-89458020D02*
X155420038Y-89315163D01*
X155420038Y-89315163D02*
X155467657Y-89267544D01*
X156372419Y-88362782D02*
X156372419Y-88838972D01*
X156372419Y-88838972D02*
X155372419Y-88838972D01*
X156372419Y-88029448D02*
X155372419Y-88029448D01*
X156372419Y-87458020D02*
X155800990Y-87886591D01*
X155372419Y-87458020D02*
X155943847Y-88029448D01*
X156372419Y-86267543D02*
X155372419Y-86267543D01*
X155420038Y-84505639D02*
X155372419Y-84600877D01*
X155372419Y-84600877D02*
X155372419Y-84743734D01*
X155372419Y-84743734D02*
X155420038Y-84886591D01*
X155420038Y-84886591D02*
X155515276Y-84981829D01*
X155515276Y-84981829D02*
X155610514Y-85029448D01*
X155610514Y-85029448D02*
X155800990Y-85077067D01*
X155800990Y-85077067D02*
X155943847Y-85077067D01*
X155943847Y-85077067D02*
X156134323Y-85029448D01*
X156134323Y-85029448D02*
X156229561Y-84981829D01*
X156229561Y-84981829D02*
X156324800Y-84886591D01*
X156324800Y-84886591D02*
X156372419Y-84743734D01*
X156372419Y-84743734D02*
X156372419Y-84648496D01*
X156372419Y-84648496D02*
X156324800Y-84505639D01*
X156324800Y-84505639D02*
X156277180Y-84458020D01*
X156277180Y-84458020D02*
X155943847Y-84458020D01*
X155943847Y-84458020D02*
X155943847Y-84648496D01*
X156372419Y-84029448D02*
X155372419Y-84029448D01*
X155372419Y-84029448D02*
X156372419Y-83458020D01*
X156372419Y-83458020D02*
X155372419Y-83458020D01*
X156372419Y-82981829D02*
X155372419Y-82981829D01*
X155372419Y-82981829D02*
X155372419Y-82743734D01*
X155372419Y-82743734D02*
X155420038Y-82600877D01*
X155420038Y-82600877D02*
X155515276Y-82505639D01*
X155515276Y-82505639D02*
X155610514Y-82458020D01*
X155610514Y-82458020D02*
X155800990Y-82410401D01*
X155800990Y-82410401D02*
X155943847Y-82410401D01*
X155943847Y-82410401D02*
X156134323Y-82458020D01*
X156134323Y-82458020D02*
X156229561Y-82505639D01*
X156229561Y-82505639D02*
X156324800Y-82600877D01*
X156324800Y-82600877D02*
X156372419Y-82743734D01*
X156372419Y-82743734D02*
X156372419Y-82981829D01*
X156372419Y-81219924D02*
X155372419Y-81219924D01*
X156324800Y-80029448D02*
X156372419Y-79886591D01*
X156372419Y-79886591D02*
X156372419Y-79648496D01*
X156372419Y-79648496D02*
X156324800Y-79553258D01*
X156324800Y-79553258D02*
X156277180Y-79505639D01*
X156277180Y-79505639D02*
X156181942Y-79458020D01*
X156181942Y-79458020D02*
X156086704Y-79458020D01*
X156086704Y-79458020D02*
X155991466Y-79505639D01*
X155991466Y-79505639D02*
X155943847Y-79553258D01*
X155943847Y-79553258D02*
X155896228Y-79648496D01*
X155896228Y-79648496D02*
X155848609Y-79838972D01*
X155848609Y-79838972D02*
X155800990Y-79934210D01*
X155800990Y-79934210D02*
X155753371Y-79981829D01*
X155753371Y-79981829D02*
X155658133Y-80029448D01*
X155658133Y-80029448D02*
X155562895Y-80029448D01*
X155562895Y-80029448D02*
X155467657Y-79981829D01*
X155467657Y-79981829D02*
X155420038Y-79934210D01*
X155420038Y-79934210D02*
X155372419Y-79838972D01*
X155372419Y-79838972D02*
X155372419Y-79600877D01*
X155372419Y-79600877D02*
X155420038Y-79458020D01*
X155372419Y-79124686D02*
X156372419Y-78886591D01*
X156372419Y-78886591D02*
X155658133Y-78696115D01*
X155658133Y-78696115D02*
X156372419Y-78505639D01*
X156372419Y-78505639D02*
X155372419Y-78267544D01*
X156372419Y-77886591D02*
X155372419Y-77886591D01*
X155372419Y-77886591D02*
X155372419Y-77648496D01*
X155372419Y-77648496D02*
X155420038Y-77505639D01*
X155420038Y-77505639D02*
X155515276Y-77410401D01*
X155515276Y-77410401D02*
X155610514Y-77362782D01*
X155610514Y-77362782D02*
X155800990Y-77315163D01*
X155800990Y-77315163D02*
X155943847Y-77315163D01*
X155943847Y-77315163D02*
X156134323Y-77362782D01*
X156134323Y-77362782D02*
X156229561Y-77410401D01*
X156229561Y-77410401D02*
X156324800Y-77505639D01*
X156324800Y-77505639D02*
X156372419Y-77648496D01*
X156372419Y-77648496D02*
X156372419Y-77886591D01*
X156372419Y-76886591D02*
X155372419Y-76886591D01*
X155372419Y-76219925D02*
X155372419Y-76029449D01*
X155372419Y-76029449D02*
X155420038Y-75934211D01*
X155420038Y-75934211D02*
X155515276Y-75838973D01*
X155515276Y-75838973D02*
X155705752Y-75791354D01*
X155705752Y-75791354D02*
X156039085Y-75791354D01*
X156039085Y-75791354D02*
X156229561Y-75838973D01*
X156229561Y-75838973D02*
X156324800Y-75934211D01*
X156324800Y-75934211D02*
X156372419Y-76029449D01*
X156372419Y-76029449D02*
X156372419Y-76219925D01*
X156372419Y-76219925D02*
X156324800Y-76315163D01*
X156324800Y-76315163D02*
X156229561Y-76410401D01*
X156229561Y-76410401D02*
X156039085Y-76458020D01*
X156039085Y-76458020D02*
X155705752Y-76458020D01*
X155705752Y-76458020D02*
X155515276Y-76410401D01*
X155515276Y-76410401D02*
X155420038Y-76315163D01*
X155420038Y-76315163D02*
X155372419Y-76219925D01*
X156372419Y-74600877D02*
X155372419Y-74600877D01*
X155372419Y-73458020D02*
X155372419Y-72838973D01*
X155372419Y-72838973D02*
X155753371Y-73172306D01*
X155753371Y-73172306D02*
X155753371Y-73029449D01*
X155753371Y-73029449D02*
X155800990Y-72934211D01*
X155800990Y-72934211D02*
X155848609Y-72886592D01*
X155848609Y-72886592D02*
X155943847Y-72838973D01*
X155943847Y-72838973D02*
X156181942Y-72838973D01*
X156181942Y-72838973D02*
X156277180Y-72886592D01*
X156277180Y-72886592D02*
X156324800Y-72934211D01*
X156324800Y-72934211D02*
X156372419Y-73029449D01*
X156372419Y-73029449D02*
X156372419Y-73315163D01*
X156372419Y-73315163D02*
X156324800Y-73410401D01*
X156324800Y-73410401D02*
X156277180Y-73458020D01*
X155372419Y-72553258D02*
X156372419Y-72219925D01*
X156372419Y-72219925D02*
X155372419Y-71886592D01*
X155372419Y-71648496D02*
X155372419Y-71029449D01*
X155372419Y-71029449D02*
X155753371Y-71362782D01*
X155753371Y-71362782D02*
X155753371Y-71219925D01*
X155753371Y-71219925D02*
X155800990Y-71124687D01*
X155800990Y-71124687D02*
X155848609Y-71077068D01*
X155848609Y-71077068D02*
X155943847Y-71029449D01*
X155943847Y-71029449D02*
X156181942Y-71029449D01*
X156181942Y-71029449D02*
X156277180Y-71077068D01*
X156277180Y-71077068D02*
X156324800Y-71124687D01*
X156324800Y-71124687D02*
X156372419Y-71219925D01*
X156372419Y-71219925D02*
X156372419Y-71505639D01*
X156372419Y-71505639D02*
X156324800Y-71600877D01*
X156324800Y-71600877D02*
X156277180Y-71648496D01*
D12*
X130926348Y-102166666D02*
X130973968Y-102214285D01*
X130973968Y-102214285D02*
X131021587Y-102357142D01*
X131021587Y-102357142D02*
X131021587Y-102452380D01*
X131021587Y-102452380D02*
X130973968Y-102595237D01*
X130973968Y-102595237D02*
X130878729Y-102690475D01*
X130878729Y-102690475D02*
X130783491Y-102738094D01*
X130783491Y-102738094D02*
X130593015Y-102785713D01*
X130593015Y-102785713D02*
X130450158Y-102785713D01*
X130450158Y-102785713D02*
X130259682Y-102738094D01*
X130259682Y-102738094D02*
X130164444Y-102690475D01*
X130164444Y-102690475D02*
X130069206Y-102595237D01*
X130069206Y-102595237D02*
X130021587Y-102452380D01*
X130021587Y-102452380D02*
X130021587Y-102357142D01*
X130021587Y-102357142D02*
X130069206Y-102214285D01*
X130069206Y-102214285D02*
X130116825Y-102166666D01*
X130021587Y-101833332D02*
X130021587Y-101166666D01*
X130021587Y-101166666D02*
X131021587Y-101595237D01*
X148603245Y-91872058D02*
X148650865Y-91919677D01*
X148650865Y-91919677D02*
X148698484Y-92062534D01*
X148698484Y-92062534D02*
X148698484Y-92157772D01*
X148698484Y-92157772D02*
X148650865Y-92300629D01*
X148650865Y-92300629D02*
X148555626Y-92395867D01*
X148555626Y-92395867D02*
X148460388Y-92443486D01*
X148460388Y-92443486D02*
X148269912Y-92491105D01*
X148269912Y-92491105D02*
X148127055Y-92491105D01*
X148127055Y-92491105D02*
X147936579Y-92443486D01*
X147936579Y-92443486D02*
X147841341Y-92395867D01*
X147841341Y-92395867D02*
X147746103Y-92300629D01*
X147746103Y-92300629D02*
X147698484Y-92157772D01*
X147698484Y-92157772D02*
X147698484Y-92062534D01*
X147698484Y-92062534D02*
X147746103Y-91919677D01*
X147746103Y-91919677D02*
X147793722Y-91872058D01*
X147793722Y-91491105D02*
X147746103Y-91443486D01*
X147746103Y-91443486D02*
X147698484Y-91348248D01*
X147698484Y-91348248D02*
X147698484Y-91110153D01*
X147698484Y-91110153D02*
X147746103Y-91014915D01*
X147746103Y-91014915D02*
X147793722Y-90967296D01*
X147793722Y-90967296D02*
X147888960Y-90919677D01*
X147888960Y-90919677D02*
X147984198Y-90919677D01*
X147984198Y-90919677D02*
X148127055Y-90967296D01*
X148127055Y-90967296D02*
X148698484Y-91538724D01*
X148698484Y-91538724D02*
X148698484Y-90919677D01*
X138833333Y-103868623D02*
X138785714Y-103916243D01*
X138785714Y-103916243D02*
X138642857Y-103963862D01*
X138642857Y-103963862D02*
X138547619Y-103963862D01*
X138547619Y-103963862D02*
X138404762Y-103916243D01*
X138404762Y-103916243D02*
X138309524Y-103821004D01*
X138309524Y-103821004D02*
X138261905Y-103725766D01*
X138261905Y-103725766D02*
X138214286Y-103535290D01*
X138214286Y-103535290D02*
X138214286Y-103392433D01*
X138214286Y-103392433D02*
X138261905Y-103201957D01*
X138261905Y-103201957D02*
X138309524Y-103106719D01*
X138309524Y-103106719D02*
X138404762Y-103011481D01*
X138404762Y-103011481D02*
X138547619Y-102963862D01*
X138547619Y-102963862D02*
X138642857Y-102963862D01*
X138642857Y-102963862D02*
X138785714Y-103011481D01*
X138785714Y-103011481D02*
X138833333Y-103059100D01*
X139738095Y-102963862D02*
X139261905Y-102963862D01*
X139261905Y-102963862D02*
X139214286Y-103440052D01*
X139214286Y-103440052D02*
X139261905Y-103392433D01*
X139261905Y-103392433D02*
X139357143Y-103344814D01*
X139357143Y-103344814D02*
X139595238Y-103344814D01*
X139595238Y-103344814D02*
X139690476Y-103392433D01*
X139690476Y-103392433D02*
X139738095Y-103440052D01*
X139738095Y-103440052D02*
X139785714Y-103535290D01*
X139785714Y-103535290D02*
X139785714Y-103773385D01*
X139785714Y-103773385D02*
X139738095Y-103868623D01*
X139738095Y-103868623D02*
X139690476Y-103916243D01*
X139690476Y-103916243D02*
X139595238Y-103963862D01*
X139595238Y-103963862D02*
X139357143Y-103963862D01*
X139357143Y-103963862D02*
X139261905Y-103916243D01*
X139261905Y-103916243D02*
X139214286Y-103868623D01*
X145783333Y-86359580D02*
X145735714Y-86407200D01*
X145735714Y-86407200D02*
X145592857Y-86454819D01*
X145592857Y-86454819D02*
X145497619Y-86454819D01*
X145497619Y-86454819D02*
X145354762Y-86407200D01*
X145354762Y-86407200D02*
X145259524Y-86311961D01*
X145259524Y-86311961D02*
X145211905Y-86216723D01*
X145211905Y-86216723D02*
X145164286Y-86026247D01*
X145164286Y-86026247D02*
X145164286Y-85883390D01*
X145164286Y-85883390D02*
X145211905Y-85692914D01*
X145211905Y-85692914D02*
X145259524Y-85597676D01*
X145259524Y-85597676D02*
X145354762Y-85502438D01*
X145354762Y-85502438D02*
X145497619Y-85454819D01*
X145497619Y-85454819D02*
X145592857Y-85454819D01*
X145592857Y-85454819D02*
X145735714Y-85502438D01*
X145735714Y-85502438D02*
X145783333Y-85550057D01*
X146116667Y-85454819D02*
X146735714Y-85454819D01*
X146735714Y-85454819D02*
X146402381Y-85835771D01*
X146402381Y-85835771D02*
X146545238Y-85835771D01*
X146545238Y-85835771D02*
X146640476Y-85883390D01*
X146640476Y-85883390D02*
X146688095Y-85931009D01*
X146688095Y-85931009D02*
X146735714Y-86026247D01*
X146735714Y-86026247D02*
X146735714Y-86264342D01*
X146735714Y-86264342D02*
X146688095Y-86359580D01*
X146688095Y-86359580D02*
X146640476Y-86407200D01*
X146640476Y-86407200D02*
X146545238Y-86454819D01*
X146545238Y-86454819D02*
X146259524Y-86454819D01*
X146259524Y-86454819D02*
X146164286Y-86407200D01*
X146164286Y-86407200D02*
X146116667Y-86359580D01*
X142859580Y-79666666D02*
X142907200Y-79714285D01*
X142907200Y-79714285D02*
X142954819Y-79857142D01*
X142954819Y-79857142D02*
X142954819Y-79952380D01*
X142954819Y-79952380D02*
X142907200Y-80095237D01*
X142907200Y-80095237D02*
X142811961Y-80190475D01*
X142811961Y-80190475D02*
X142716723Y-80238094D01*
X142716723Y-80238094D02*
X142526247Y-80285713D01*
X142526247Y-80285713D02*
X142383390Y-80285713D01*
X142383390Y-80285713D02*
X142192914Y-80238094D01*
X142192914Y-80238094D02*
X142097676Y-80190475D01*
X142097676Y-80190475D02*
X142002438Y-80095237D01*
X142002438Y-80095237D02*
X141954819Y-79952380D01*
X141954819Y-79952380D02*
X141954819Y-79857142D01*
X141954819Y-79857142D02*
X142002438Y-79714285D01*
X142002438Y-79714285D02*
X142050057Y-79666666D01*
X141954819Y-78809523D02*
X141954819Y-78999999D01*
X141954819Y-78999999D02*
X142002438Y-79095237D01*
X142002438Y-79095237D02*
X142050057Y-79142856D01*
X142050057Y-79142856D02*
X142192914Y-79238094D01*
X142192914Y-79238094D02*
X142383390Y-79285713D01*
X142383390Y-79285713D02*
X142764342Y-79285713D01*
X142764342Y-79285713D02*
X142859580Y-79238094D01*
X142859580Y-79238094D02*
X142907200Y-79190475D01*
X142907200Y-79190475D02*
X142954819Y-79095237D01*
X142954819Y-79095237D02*
X142954819Y-78904761D01*
X142954819Y-78904761D02*
X142907200Y-78809523D01*
X142907200Y-78809523D02*
X142859580Y-78761904D01*
X142859580Y-78761904D02*
X142764342Y-78714285D01*
X142764342Y-78714285D02*
X142526247Y-78714285D01*
X142526247Y-78714285D02*
X142431009Y-78761904D01*
X142431009Y-78761904D02*
X142383390Y-78809523D01*
X142383390Y-78809523D02*
X142335771Y-78904761D01*
X142335771Y-78904761D02*
X142335771Y-79095237D01*
X142335771Y-79095237D02*
X142383390Y-79190475D01*
X142383390Y-79190475D02*
X142431009Y-79238094D01*
X142431009Y-79238094D02*
X142526247Y-79285713D01*
X132357142Y-87859580D02*
X132309523Y-87907200D01*
X132309523Y-87907200D02*
X132166666Y-87954819D01*
X132166666Y-87954819D02*
X132071428Y-87954819D01*
X132071428Y-87954819D02*
X131928571Y-87907200D01*
X131928571Y-87907200D02*
X131833333Y-87811961D01*
X131833333Y-87811961D02*
X131785714Y-87716723D01*
X131785714Y-87716723D02*
X131738095Y-87526247D01*
X131738095Y-87526247D02*
X131738095Y-87383390D01*
X131738095Y-87383390D02*
X131785714Y-87192914D01*
X131785714Y-87192914D02*
X131833333Y-87097676D01*
X131833333Y-87097676D02*
X131928571Y-87002438D01*
X131928571Y-87002438D02*
X132071428Y-86954819D01*
X132071428Y-86954819D02*
X132166666Y-86954819D01*
X132166666Y-86954819D02*
X132309523Y-87002438D01*
X132309523Y-87002438D02*
X132357142Y-87050057D01*
X133309523Y-87954819D02*
X132738095Y-87954819D01*
X133023809Y-87954819D02*
X133023809Y-86954819D01*
X133023809Y-86954819D02*
X132928571Y-87097676D01*
X132928571Y-87097676D02*
X132833333Y-87192914D01*
X132833333Y-87192914D02*
X132738095Y-87240533D01*
X133928571Y-86954819D02*
X134023809Y-86954819D01*
X134023809Y-86954819D02*
X134119047Y-87002438D01*
X134119047Y-87002438D02*
X134166666Y-87050057D01*
X134166666Y-87050057D02*
X134214285Y-87145295D01*
X134214285Y-87145295D02*
X134261904Y-87335771D01*
X134261904Y-87335771D02*
X134261904Y-87573866D01*
X134261904Y-87573866D02*
X134214285Y-87764342D01*
X134214285Y-87764342D02*
X134166666Y-87859580D01*
X134166666Y-87859580D02*
X134119047Y-87907200D01*
X134119047Y-87907200D02*
X134023809Y-87954819D01*
X134023809Y-87954819D02*
X133928571Y-87954819D01*
X133928571Y-87954819D02*
X133833333Y-87907200D01*
X133833333Y-87907200D02*
X133785714Y-87859580D01*
X133785714Y-87859580D02*
X133738095Y-87764342D01*
X133738095Y-87764342D02*
X133690476Y-87573866D01*
X133690476Y-87573866D02*
X133690476Y-87335771D01*
X133690476Y-87335771D02*
X133738095Y-87145295D01*
X133738095Y-87145295D02*
X133785714Y-87050057D01*
X133785714Y-87050057D02*
X133833333Y-87002438D01*
X133833333Y-87002438D02*
X133928571Y-86954819D01*
X127547672Y-94946265D02*
X127500053Y-94993885D01*
X127500053Y-94993885D02*
X127357196Y-95041504D01*
X127357196Y-95041504D02*
X127261958Y-95041504D01*
X127261958Y-95041504D02*
X127119101Y-94993885D01*
X127119101Y-94993885D02*
X127023863Y-94898646D01*
X127023863Y-94898646D02*
X126976244Y-94803408D01*
X126976244Y-94803408D02*
X126928625Y-94612932D01*
X126928625Y-94612932D02*
X126928625Y-94470075D01*
X126928625Y-94470075D02*
X126976244Y-94279599D01*
X126976244Y-94279599D02*
X127023863Y-94184361D01*
X127023863Y-94184361D02*
X127119101Y-94089123D01*
X127119101Y-94089123D02*
X127261958Y-94041504D01*
X127261958Y-94041504D02*
X127357196Y-94041504D01*
X127357196Y-94041504D02*
X127500053Y-94089123D01*
X127500053Y-94089123D02*
X127547672Y-94136742D01*
X128500053Y-95041504D02*
X127928625Y-95041504D01*
X128214339Y-95041504D02*
X128214339Y-94041504D01*
X128214339Y-94041504D02*
X128119101Y-94184361D01*
X128119101Y-94184361D02*
X128023863Y-94279599D01*
X128023863Y-94279599D02*
X127928625Y-94327218D01*
X129357196Y-94374837D02*
X129357196Y-95041504D01*
X129119101Y-93993885D02*
X128881006Y-94708170D01*
X128881006Y-94708170D02*
X129500053Y-94708170D01*
X130868391Y-90000874D02*
X130916011Y-90048493D01*
X130916011Y-90048493D02*
X130963630Y-90191350D01*
X130963630Y-90191350D02*
X130963630Y-90286588D01*
X130963630Y-90286588D02*
X130916011Y-90429445D01*
X130916011Y-90429445D02*
X130820772Y-90524683D01*
X130820772Y-90524683D02*
X130725534Y-90572302D01*
X130725534Y-90572302D02*
X130535058Y-90619921D01*
X130535058Y-90619921D02*
X130392201Y-90619921D01*
X130392201Y-90619921D02*
X130201725Y-90572302D01*
X130201725Y-90572302D02*
X130106487Y-90524683D01*
X130106487Y-90524683D02*
X130011249Y-90429445D01*
X130011249Y-90429445D02*
X129963630Y-90286588D01*
X129963630Y-90286588D02*
X129963630Y-90191350D01*
X129963630Y-90191350D02*
X130011249Y-90048493D01*
X130011249Y-90048493D02*
X130058868Y-90000874D01*
X130392201Y-89429445D02*
X130344582Y-89524683D01*
X130344582Y-89524683D02*
X130296963Y-89572302D01*
X130296963Y-89572302D02*
X130201725Y-89619921D01*
X130201725Y-89619921D02*
X130154106Y-89619921D01*
X130154106Y-89619921D02*
X130058868Y-89572302D01*
X130058868Y-89572302D02*
X130011249Y-89524683D01*
X130011249Y-89524683D02*
X129963630Y-89429445D01*
X129963630Y-89429445D02*
X129963630Y-89238969D01*
X129963630Y-89238969D02*
X130011249Y-89143731D01*
X130011249Y-89143731D02*
X130058868Y-89096112D01*
X130058868Y-89096112D02*
X130154106Y-89048493D01*
X130154106Y-89048493D02*
X130201725Y-89048493D01*
X130201725Y-89048493D02*
X130296963Y-89096112D01*
X130296963Y-89096112D02*
X130344582Y-89143731D01*
X130344582Y-89143731D02*
X130392201Y-89238969D01*
X130392201Y-89238969D02*
X130392201Y-89429445D01*
X130392201Y-89429445D02*
X130439820Y-89524683D01*
X130439820Y-89524683D02*
X130487439Y-89572302D01*
X130487439Y-89572302D02*
X130582677Y-89619921D01*
X130582677Y-89619921D02*
X130773153Y-89619921D01*
X130773153Y-89619921D02*
X130868391Y-89572302D01*
X130868391Y-89572302D02*
X130916011Y-89524683D01*
X130916011Y-89524683D02*
X130963630Y-89429445D01*
X130963630Y-89429445D02*
X130963630Y-89238969D01*
X130963630Y-89238969D02*
X130916011Y-89143731D01*
X130916011Y-89143731D02*
X130868391Y-89096112D01*
X130868391Y-89096112D02*
X130773153Y-89048493D01*
X130773153Y-89048493D02*
X130582677Y-89048493D01*
X130582677Y-89048493D02*
X130487439Y-89096112D01*
X130487439Y-89096112D02*
X130439820Y-89143731D01*
X130439820Y-89143731D02*
X130392201Y-89238969D01*
X140359580Y-79666666D02*
X140407200Y-79714285D01*
X140407200Y-79714285D02*
X140454819Y-79857142D01*
X140454819Y-79857142D02*
X140454819Y-79952380D01*
X140454819Y-79952380D02*
X140407200Y-80095237D01*
X140407200Y-80095237D02*
X140311961Y-80190475D01*
X140311961Y-80190475D02*
X140216723Y-80238094D01*
X140216723Y-80238094D02*
X140026247Y-80285713D01*
X140026247Y-80285713D02*
X139883390Y-80285713D01*
X139883390Y-80285713D02*
X139692914Y-80238094D01*
X139692914Y-80238094D02*
X139597676Y-80190475D01*
X139597676Y-80190475D02*
X139502438Y-80095237D01*
X139502438Y-80095237D02*
X139454819Y-79952380D01*
X139454819Y-79952380D02*
X139454819Y-79857142D01*
X139454819Y-79857142D02*
X139502438Y-79714285D01*
X139502438Y-79714285D02*
X139550057Y-79666666D01*
X140454819Y-79190475D02*
X140454819Y-78999999D01*
X140454819Y-78999999D02*
X140407200Y-78904761D01*
X140407200Y-78904761D02*
X140359580Y-78857142D01*
X140359580Y-78857142D02*
X140216723Y-78761904D01*
X140216723Y-78761904D02*
X140026247Y-78714285D01*
X140026247Y-78714285D02*
X139645295Y-78714285D01*
X139645295Y-78714285D02*
X139550057Y-78761904D01*
X139550057Y-78761904D02*
X139502438Y-78809523D01*
X139502438Y-78809523D02*
X139454819Y-78904761D01*
X139454819Y-78904761D02*
X139454819Y-79095237D01*
X139454819Y-79095237D02*
X139502438Y-79190475D01*
X139502438Y-79190475D02*
X139550057Y-79238094D01*
X139550057Y-79238094D02*
X139645295Y-79285713D01*
X139645295Y-79285713D02*
X139883390Y-79285713D01*
X139883390Y-79285713D02*
X139978628Y-79238094D01*
X139978628Y-79238094D02*
X140026247Y-79190475D01*
X140026247Y-79190475D02*
X140073866Y-79095237D01*
X140073866Y-79095237D02*
X140073866Y-78904761D01*
X140073866Y-78904761D02*
X140026247Y-78809523D01*
X140026247Y-78809523D02*
X139978628Y-78761904D01*
X139978628Y-78761904D02*
X139883390Y-78714285D01*
X132357142Y-85859580D02*
X132309523Y-85907200D01*
X132309523Y-85907200D02*
X132166666Y-85954819D01*
X132166666Y-85954819D02*
X132071428Y-85954819D01*
X132071428Y-85954819D02*
X131928571Y-85907200D01*
X131928571Y-85907200D02*
X131833333Y-85811961D01*
X131833333Y-85811961D02*
X131785714Y-85716723D01*
X131785714Y-85716723D02*
X131738095Y-85526247D01*
X131738095Y-85526247D02*
X131738095Y-85383390D01*
X131738095Y-85383390D02*
X131785714Y-85192914D01*
X131785714Y-85192914D02*
X131833333Y-85097676D01*
X131833333Y-85097676D02*
X131928571Y-85002438D01*
X131928571Y-85002438D02*
X132071428Y-84954819D01*
X132071428Y-84954819D02*
X132166666Y-84954819D01*
X132166666Y-84954819D02*
X132309523Y-85002438D01*
X132309523Y-85002438D02*
X132357142Y-85050057D01*
X133309523Y-85954819D02*
X132738095Y-85954819D01*
X133023809Y-85954819D02*
X133023809Y-84954819D01*
X133023809Y-84954819D02*
X132928571Y-85097676D01*
X132928571Y-85097676D02*
X132833333Y-85192914D01*
X132833333Y-85192914D02*
X132738095Y-85240533D01*
X134261904Y-85954819D02*
X133690476Y-85954819D01*
X133976190Y-85954819D02*
X133976190Y-84954819D01*
X133976190Y-84954819D02*
X133880952Y-85097676D01*
X133880952Y-85097676D02*
X133785714Y-85192914D01*
X133785714Y-85192914D02*
X133690476Y-85240533D01*
X146868180Y-97194194D02*
X146534847Y-96718003D01*
X146296752Y-97194194D02*
X146296752Y-96194194D01*
X146296752Y-96194194D02*
X146677704Y-96194194D01*
X146677704Y-96194194D02*
X146772942Y-96241813D01*
X146772942Y-96241813D02*
X146820561Y-96289432D01*
X146820561Y-96289432D02*
X146868180Y-96384670D01*
X146868180Y-96384670D02*
X146868180Y-96527527D01*
X146868180Y-96527527D02*
X146820561Y-96622765D01*
X146820561Y-96622765D02*
X146772942Y-96670384D01*
X146772942Y-96670384D02*
X146677704Y-96718003D01*
X146677704Y-96718003D02*
X146296752Y-96718003D01*
X147201514Y-96194194D02*
X147868180Y-96194194D01*
X147868180Y-96194194D02*
X147439609Y-97194194D01*
X135454819Y-126666666D02*
X134978628Y-126999999D01*
X135454819Y-127238094D02*
X134454819Y-127238094D01*
X134454819Y-127238094D02*
X134454819Y-126857142D01*
X134454819Y-126857142D02*
X134502438Y-126761904D01*
X134502438Y-126761904D02*
X134550057Y-126714285D01*
X134550057Y-126714285D02*
X134645295Y-126666666D01*
X134645295Y-126666666D02*
X134788152Y-126666666D01*
X134788152Y-126666666D02*
X134883390Y-126714285D01*
X134883390Y-126714285D02*
X134931009Y-126761904D01*
X134931009Y-126761904D02*
X134978628Y-126857142D01*
X134978628Y-126857142D02*
X134978628Y-127238094D01*
X134454819Y-125809523D02*
X134454819Y-125999999D01*
X134454819Y-125999999D02*
X134502438Y-126095237D01*
X134502438Y-126095237D02*
X134550057Y-126142856D01*
X134550057Y-126142856D02*
X134692914Y-126238094D01*
X134692914Y-126238094D02*
X134883390Y-126285713D01*
X134883390Y-126285713D02*
X135264342Y-126285713D01*
X135264342Y-126285713D02*
X135359580Y-126238094D01*
X135359580Y-126238094D02*
X135407200Y-126190475D01*
X135407200Y-126190475D02*
X135454819Y-126095237D01*
X135454819Y-126095237D02*
X135454819Y-125904761D01*
X135454819Y-125904761D02*
X135407200Y-125809523D01*
X135407200Y-125809523D02*
X135359580Y-125761904D01*
X135359580Y-125761904D02*
X135264342Y-125714285D01*
X135264342Y-125714285D02*
X135026247Y-125714285D01*
X135026247Y-125714285D02*
X134931009Y-125761904D01*
X134931009Y-125761904D02*
X134883390Y-125809523D01*
X134883390Y-125809523D02*
X134835771Y-125904761D01*
X134835771Y-125904761D02*
X134835771Y-126095237D01*
X134835771Y-126095237D02*
X134883390Y-126190475D01*
X134883390Y-126190475D02*
X134931009Y-126238094D01*
X134931009Y-126238094D02*
X135026247Y-126285713D01*
X137454819Y-126666666D02*
X136978628Y-126999999D01*
X137454819Y-127238094D02*
X136454819Y-127238094D01*
X136454819Y-127238094D02*
X136454819Y-126857142D01*
X136454819Y-126857142D02*
X136502438Y-126761904D01*
X136502438Y-126761904D02*
X136550057Y-126714285D01*
X136550057Y-126714285D02*
X136645295Y-126666666D01*
X136645295Y-126666666D02*
X136788152Y-126666666D01*
X136788152Y-126666666D02*
X136883390Y-126714285D01*
X136883390Y-126714285D02*
X136931009Y-126761904D01*
X136931009Y-126761904D02*
X136978628Y-126857142D01*
X136978628Y-126857142D02*
X136978628Y-127238094D01*
X136454819Y-125761904D02*
X136454819Y-126238094D01*
X136454819Y-126238094D02*
X136931009Y-126285713D01*
X136931009Y-126285713D02*
X136883390Y-126238094D01*
X136883390Y-126238094D02*
X136835771Y-126142856D01*
X136835771Y-126142856D02*
X136835771Y-125904761D01*
X136835771Y-125904761D02*
X136883390Y-125809523D01*
X136883390Y-125809523D02*
X136931009Y-125761904D01*
X136931009Y-125761904D02*
X137026247Y-125714285D01*
X137026247Y-125714285D02*
X137264342Y-125714285D01*
X137264342Y-125714285D02*
X137359580Y-125761904D01*
X137359580Y-125761904D02*
X137407200Y-125809523D01*
X137407200Y-125809523D02*
X137454819Y-125904761D01*
X137454819Y-125904761D02*
X137454819Y-126142856D01*
X137454819Y-126142856D02*
X137407200Y-126238094D01*
X137407200Y-126238094D02*
X137359580Y-126285713D01*
X136454819Y-72666666D02*
X135978628Y-72999999D01*
X136454819Y-73238094D02*
X135454819Y-73238094D01*
X135454819Y-73238094D02*
X135454819Y-72857142D01*
X135454819Y-72857142D02*
X135502438Y-72761904D01*
X135502438Y-72761904D02*
X135550057Y-72714285D01*
X135550057Y-72714285D02*
X135645295Y-72666666D01*
X135645295Y-72666666D02*
X135788152Y-72666666D01*
X135788152Y-72666666D02*
X135883390Y-72714285D01*
X135883390Y-72714285D02*
X135931009Y-72761904D01*
X135931009Y-72761904D02*
X135978628Y-72857142D01*
X135978628Y-72857142D02*
X135978628Y-73238094D01*
X135788152Y-71809523D02*
X136454819Y-71809523D01*
X135407200Y-72047618D02*
X136121485Y-72285713D01*
X136121485Y-72285713D02*
X136121485Y-71666666D01*
X140454819Y-72666666D02*
X139978628Y-72999999D01*
X140454819Y-73238094D02*
X139454819Y-73238094D01*
X139454819Y-73238094D02*
X139454819Y-72857142D01*
X139454819Y-72857142D02*
X139502438Y-72761904D01*
X139502438Y-72761904D02*
X139550057Y-72714285D01*
X139550057Y-72714285D02*
X139645295Y-72666666D01*
X139645295Y-72666666D02*
X139788152Y-72666666D01*
X139788152Y-72666666D02*
X139883390Y-72714285D01*
X139883390Y-72714285D02*
X139931009Y-72761904D01*
X139931009Y-72761904D02*
X139978628Y-72857142D01*
X139978628Y-72857142D02*
X139978628Y-73238094D01*
X139454819Y-72333332D02*
X139454819Y-71714285D01*
X139454819Y-71714285D02*
X139835771Y-72047618D01*
X139835771Y-72047618D02*
X139835771Y-71904761D01*
X139835771Y-71904761D02*
X139883390Y-71809523D01*
X139883390Y-71809523D02*
X139931009Y-71761904D01*
X139931009Y-71761904D02*
X140026247Y-71714285D01*
X140026247Y-71714285D02*
X140264342Y-71714285D01*
X140264342Y-71714285D02*
X140359580Y-71761904D01*
X140359580Y-71761904D02*
X140407200Y-71809523D01*
X140407200Y-71809523D02*
X140454819Y-71904761D01*
X140454819Y-71904761D02*
X140454819Y-72190475D01*
X140454819Y-72190475D02*
X140407200Y-72285713D01*
X140407200Y-72285713D02*
X140359580Y-72333332D01*
X138454819Y-72666666D02*
X137978628Y-72999999D01*
X138454819Y-73238094D02*
X137454819Y-73238094D01*
X137454819Y-73238094D02*
X137454819Y-72857142D01*
X137454819Y-72857142D02*
X137502438Y-72761904D01*
X137502438Y-72761904D02*
X137550057Y-72714285D01*
X137550057Y-72714285D02*
X137645295Y-72666666D01*
X137645295Y-72666666D02*
X137788152Y-72666666D01*
X137788152Y-72666666D02*
X137883390Y-72714285D01*
X137883390Y-72714285D02*
X137931009Y-72761904D01*
X137931009Y-72761904D02*
X137978628Y-72857142D01*
X137978628Y-72857142D02*
X137978628Y-73238094D01*
X137550057Y-72285713D02*
X137502438Y-72238094D01*
X137502438Y-72238094D02*
X137454819Y-72142856D01*
X137454819Y-72142856D02*
X137454819Y-71904761D01*
X137454819Y-71904761D02*
X137502438Y-71809523D01*
X137502438Y-71809523D02*
X137550057Y-71761904D01*
X137550057Y-71761904D02*
X137645295Y-71714285D01*
X137645295Y-71714285D02*
X137740533Y-71714285D01*
X137740533Y-71714285D02*
X137883390Y-71761904D01*
X137883390Y-71761904D02*
X138454819Y-72333332D01*
X138454819Y-72333332D02*
X138454819Y-71714285D01*
X150454819Y-84166666D02*
X149978628Y-84499999D01*
X150454819Y-84738094D02*
X149454819Y-84738094D01*
X149454819Y-84738094D02*
X149454819Y-84357142D01*
X149454819Y-84357142D02*
X149502438Y-84261904D01*
X149502438Y-84261904D02*
X149550057Y-84214285D01*
X149550057Y-84214285D02*
X149645295Y-84166666D01*
X149645295Y-84166666D02*
X149788152Y-84166666D01*
X149788152Y-84166666D02*
X149883390Y-84214285D01*
X149883390Y-84214285D02*
X149931009Y-84261904D01*
X149931009Y-84261904D02*
X149978628Y-84357142D01*
X149978628Y-84357142D02*
X149978628Y-84738094D01*
X150454819Y-83214285D02*
X150454819Y-83785713D01*
X150454819Y-83499999D02*
X149454819Y-83499999D01*
X149454819Y-83499999D02*
X149597676Y-83595237D01*
X149597676Y-83595237D02*
X149692914Y-83690475D01*
X149692914Y-83690475D02*
X149740533Y-83785713D01*
X139666666Y-124574819D02*
X139666666Y-125289104D01*
X139666666Y-125289104D02*
X139619047Y-125431961D01*
X139619047Y-125431961D02*
X139523809Y-125527200D01*
X139523809Y-125527200D02*
X139380952Y-125574819D01*
X139380952Y-125574819D02*
X139285714Y-125574819D01*
X140095238Y-124670057D02*
X140142857Y-124622438D01*
X140142857Y-124622438D02*
X140238095Y-124574819D01*
X140238095Y-124574819D02*
X140476190Y-124574819D01*
X140476190Y-124574819D02*
X140571428Y-124622438D01*
X140571428Y-124622438D02*
X140619047Y-124670057D01*
X140619047Y-124670057D02*
X140666666Y-124765295D01*
X140666666Y-124765295D02*
X140666666Y-124860533D01*
X140666666Y-124860533D02*
X140619047Y-125003390D01*
X140619047Y-125003390D02*
X140047619Y-125574819D01*
X140047619Y-125574819D02*
X140666666Y-125574819D01*
X139666666Y-49574819D02*
X139666666Y-50289104D01*
X139666666Y-50289104D02*
X139619047Y-50431961D01*
X139619047Y-50431961D02*
X139523809Y-50527200D01*
X139523809Y-50527200D02*
X139380952Y-50574819D01*
X139380952Y-50574819D02*
X139285714Y-50574819D01*
X140666666Y-50574819D02*
X140095238Y-50574819D01*
X140380952Y-50574819D02*
X140380952Y-49574819D01*
X140380952Y-49574819D02*
X140285714Y-49717676D01*
X140285714Y-49717676D02*
X140190476Y-49812914D01*
X140190476Y-49812914D02*
X140095238Y-49860533D01*
X143983773Y-127642857D02*
X144031393Y-127690476D01*
X144031393Y-127690476D02*
X144079012Y-127833333D01*
X144079012Y-127833333D02*
X144079012Y-127928571D01*
X144079012Y-127928571D02*
X144031393Y-128071428D01*
X144031393Y-128071428D02*
X143936154Y-128166666D01*
X143936154Y-128166666D02*
X143840916Y-128214285D01*
X143840916Y-128214285D02*
X143650440Y-128261904D01*
X143650440Y-128261904D02*
X143507583Y-128261904D01*
X143507583Y-128261904D02*
X143317107Y-128214285D01*
X143317107Y-128214285D02*
X143221869Y-128166666D01*
X143221869Y-128166666D02*
X143126631Y-128071428D01*
X143126631Y-128071428D02*
X143079012Y-127928571D01*
X143079012Y-127928571D02*
X143079012Y-127833333D01*
X143079012Y-127833333D02*
X143126631Y-127690476D01*
X143126631Y-127690476D02*
X143174250Y-127642857D01*
X144079012Y-126690476D02*
X144079012Y-127261904D01*
X144079012Y-126976190D02*
X143079012Y-126976190D01*
X143079012Y-126976190D02*
X143221869Y-127071428D01*
X143221869Y-127071428D02*
X143317107Y-127166666D01*
X143317107Y-127166666D02*
X143364726Y-127261904D01*
X143079012Y-126357142D02*
X143079012Y-125738095D01*
X143079012Y-125738095D02*
X143459964Y-126071428D01*
X143459964Y-126071428D02*
X143459964Y-125928571D01*
X143459964Y-125928571D02*
X143507583Y-125833333D01*
X143507583Y-125833333D02*
X143555202Y-125785714D01*
X143555202Y-125785714D02*
X143650440Y-125738095D01*
X143650440Y-125738095D02*
X143888535Y-125738095D01*
X143888535Y-125738095D02*
X143983773Y-125785714D01*
X143983773Y-125785714D02*
X144031393Y-125833333D01*
X144031393Y-125833333D02*
X144079012Y-125928571D01*
X144079012Y-125928571D02*
X144079012Y-126214285D01*
X144079012Y-126214285D02*
X144031393Y-126309523D01*
X144031393Y-126309523D02*
X143983773Y-126357142D01*
X145359580Y-61642857D02*
X145407200Y-61690476D01*
X145407200Y-61690476D02*
X145454819Y-61833333D01*
X145454819Y-61833333D02*
X145454819Y-61928571D01*
X145454819Y-61928571D02*
X145407200Y-62071428D01*
X145407200Y-62071428D02*
X145311961Y-62166666D01*
X145311961Y-62166666D02*
X145216723Y-62214285D01*
X145216723Y-62214285D02*
X145026247Y-62261904D01*
X145026247Y-62261904D02*
X144883390Y-62261904D01*
X144883390Y-62261904D02*
X144692914Y-62214285D01*
X144692914Y-62214285D02*
X144597676Y-62166666D01*
X144597676Y-62166666D02*
X144502438Y-62071428D01*
X144502438Y-62071428D02*
X144454819Y-61928571D01*
X144454819Y-61928571D02*
X144454819Y-61833333D01*
X144454819Y-61833333D02*
X144502438Y-61690476D01*
X144502438Y-61690476D02*
X144550057Y-61642857D01*
X145454819Y-60690476D02*
X145454819Y-61261904D01*
X145454819Y-60976190D02*
X144454819Y-60976190D01*
X144454819Y-60976190D02*
X144597676Y-61071428D01*
X144597676Y-61071428D02*
X144692914Y-61166666D01*
X144692914Y-61166666D02*
X144740533Y-61261904D01*
X144550057Y-60309523D02*
X144502438Y-60261904D01*
X144502438Y-60261904D02*
X144454819Y-60166666D01*
X144454819Y-60166666D02*
X144454819Y-59928571D01*
X144454819Y-59928571D02*
X144502438Y-59833333D01*
X144502438Y-59833333D02*
X144550057Y-59785714D01*
X144550057Y-59785714D02*
X144645295Y-59738095D01*
X144645295Y-59738095D02*
X144740533Y-59738095D01*
X144740533Y-59738095D02*
X144883390Y-59785714D01*
X144883390Y-59785714D02*
X145454819Y-60357142D01*
X145454819Y-60357142D02*
X145454819Y-59738095D01*
X136333333Y-60179580D02*
X136285714Y-60227200D01*
X136285714Y-60227200D02*
X136142857Y-60274819D01*
X136142857Y-60274819D02*
X136047619Y-60274819D01*
X136047619Y-60274819D02*
X135904762Y-60227200D01*
X135904762Y-60227200D02*
X135809524Y-60131961D01*
X135809524Y-60131961D02*
X135761905Y-60036723D01*
X135761905Y-60036723D02*
X135714286Y-59846247D01*
X135714286Y-59846247D02*
X135714286Y-59703390D01*
X135714286Y-59703390D02*
X135761905Y-59512914D01*
X135761905Y-59512914D02*
X135809524Y-59417676D01*
X135809524Y-59417676D02*
X135904762Y-59322438D01*
X135904762Y-59322438D02*
X136047619Y-59274819D01*
X136047619Y-59274819D02*
X136142857Y-59274819D01*
X136142857Y-59274819D02*
X136285714Y-59322438D01*
X136285714Y-59322438D02*
X136333333Y-59370057D01*
X137190476Y-59608152D02*
X137190476Y-60274819D01*
X136952381Y-59227200D02*
X136714286Y-59941485D01*
X136714286Y-59941485D02*
X137333333Y-59941485D01*
X152113785Y-91292488D02*
X152161405Y-91340107D01*
X152161405Y-91340107D02*
X152209024Y-91482964D01*
X152209024Y-91482964D02*
X152209024Y-91578202D01*
X152209024Y-91578202D02*
X152161405Y-91721059D01*
X152161405Y-91721059D02*
X152066166Y-91816297D01*
X152066166Y-91816297D02*
X151970928Y-91863916D01*
X151970928Y-91863916D02*
X151780452Y-91911535D01*
X151780452Y-91911535D02*
X151637595Y-91911535D01*
X151637595Y-91911535D02*
X151447119Y-91863916D01*
X151447119Y-91863916D02*
X151351881Y-91816297D01*
X151351881Y-91816297D02*
X151256643Y-91721059D01*
X151256643Y-91721059D02*
X151209024Y-91578202D01*
X151209024Y-91578202D02*
X151209024Y-91482964D01*
X151209024Y-91482964D02*
X151256643Y-91340107D01*
X151256643Y-91340107D02*
X151304262Y-91292488D01*
X152209024Y-90340107D02*
X152209024Y-90911535D01*
X152209024Y-90625821D02*
X151209024Y-90625821D01*
X151209024Y-90625821D02*
X151351881Y-90721059D01*
X151351881Y-90721059D02*
X151447119Y-90816297D01*
X151447119Y-90816297D02*
X151494738Y-90911535D01*
D13*
%TO.C,C7*%
X129765000Y-98788748D02*
X129765000Y-99311252D01*
X131235000Y-98788748D02*
X131235000Y-99311252D01*
%TO.C,C2*%
X145870355Y-91711603D02*
X145870355Y-92234107D01*
X147340355Y-91711603D02*
X147340355Y-92234107D01*
%TO.C,C5*%
X141720527Y-104216001D02*
X142243031Y-104216001D01*
X141720527Y-102746001D02*
X142243031Y-102746001D01*
%TO.C,C3*%
X145688748Y-88235000D02*
X146211252Y-88235000D01*
X145688748Y-86765000D02*
X146211252Y-86765000D01*
%TO.C,C6*%
X143235000Y-82711252D02*
X143235000Y-82188748D01*
X141765000Y-82711252D02*
X141765000Y-82188748D01*
%TO.C,C10*%
X136711252Y-86765000D02*
X136188748Y-86765000D01*
X136711252Y-88235000D02*
X136188748Y-88235000D01*
%TO.C,C14*%
X130036814Y-95579623D02*
X129514310Y-95579623D01*
X130036814Y-97049623D02*
X129514310Y-97049623D01*
%TO.C,C8*%
X129765000Y-92288748D02*
X129765000Y-92811252D01*
X131235000Y-92288748D02*
X131235000Y-92811252D01*
%TO.C,C9*%
X140735000Y-82711252D02*
X140735000Y-82188748D01*
X139265000Y-82711252D02*
X139265000Y-82188748D01*
%TO.C,C11*%
X136711252Y-84715000D02*
X136188748Y-84715000D01*
X136711252Y-86185000D02*
X136188748Y-86185000D01*
%TO.C,R7*%
X146860436Y-95735000D02*
X147314564Y-95735000D01*
X146860436Y-94265000D02*
X147314564Y-94265000D01*
D11*
%TO.C,Y1*%
X141650000Y-85750000D02*
X140850000Y-85750000D01*
X141650000Y-87250000D02*
X140850000Y-87250000D01*
D10*
%TO.C,Q1*%
X131000000Y-63050000D02*
X131750000Y-63050000D01*
X131750000Y-63050000D02*
X131750000Y-66050000D01*
X131750000Y-66050000D02*
X131000000Y-66050000D01*
X131000000Y-66050000D02*
X131000000Y-63050000D01*
X129500000Y-62950000D02*
X130650000Y-62950000D01*
%TO.C,IC4*%
X140100000Y-122850000D02*
X140500000Y-122850000D01*
X140500000Y-124350000D02*
X140100000Y-124350000D01*
D11*
X138900000Y-123200000D02*
X138900000Y-123200000D01*
X138800000Y-123200000D02*
X138800000Y-123200000D01*
X138800000Y-123200000D02*
G75*
G02*
X138900000Y-123200000I50000J0D01*
G01*
X138900000Y-123200000D02*
G75*
G02*
X138800000Y-123200000I-50000J0D01*
G01*
D10*
%TO.C,IC3*%
X140575000Y-63000000D02*
X141375000Y-63000000D01*
X140575000Y-65900000D02*
X141375000Y-65900000D01*
X141775000Y-64250000D02*
X141775000Y-64650000D01*
X138875000Y-63450000D02*
X138875000Y-63450000D01*
X138975000Y-63450000D02*
X138975000Y-63450000D01*
X138875000Y-63450000D02*
X138875000Y-63450000D01*
X138975000Y-63450000D02*
G75*
G02*
X138875000Y-63450000I-50000J0D01*
G01*
X138875000Y-63450000D02*
G75*
G02*
X138975000Y-63450000I50000J0D01*
G01*
X138975000Y-63450000D02*
G75*
G02*
X138875000Y-63450000I-50000J0D01*
G01*
%TO.C,IC2*%
X135000000Y-62950000D02*
X136150000Y-62950000D01*
D13*
%TO.C,R6*%
X134265000Y-123639564D02*
X134265000Y-123185436D01*
X135735000Y-123639564D02*
X135735000Y-123185436D01*
%TO.C,R5*%
X136265000Y-123639564D02*
X136265000Y-123185436D01*
X137735000Y-123639564D02*
X137735000Y-123185436D01*
%TO.C,R4*%
X137265000Y-69814564D02*
X137265000Y-69360436D01*
X138735000Y-69814564D02*
X138735000Y-69360436D01*
%TO.C,R3*%
X140735000Y-69360436D02*
X140735000Y-69814564D01*
X139265000Y-69360436D02*
X139265000Y-69814564D01*
%TO.C,R2*%
X136735000Y-69360436D02*
X136735000Y-69814564D01*
X135265000Y-69360436D02*
X135265000Y-69814564D01*
%TO.C,R1*%
X150735000Y-86360436D02*
X150735000Y-86814564D01*
X149265000Y-86360436D02*
X149265000Y-86814564D01*
%TO.C,J5*%
X151620000Y-76620000D02*
X153000000Y-76620000D01*
X151620000Y-78000000D02*
X151620000Y-76620000D01*
X151620000Y-79270000D02*
X151620000Y-89540000D01*
X151620000Y-79270000D02*
X154380000Y-79270000D01*
X151620000Y-89540000D02*
X154380000Y-89540000D01*
X154380000Y-79270000D02*
X154380000Y-89540000D01*
%TO.C,J4*%
X134890000Y-121110000D02*
X134890000Y-120000000D01*
X136000000Y-121110000D02*
X134890000Y-121110000D01*
X137000000Y-121110000D02*
X145110000Y-121110000D01*
X137000000Y-121110000D02*
X137000000Y-118890000D01*
X145110000Y-121110000D02*
X145110000Y-118890000D01*
X137000000Y-118890000D02*
X145110000Y-118890000D01*
%TO.C,J3*%
X145110000Y-108890000D02*
X145110000Y-110000000D01*
X144000000Y-108890000D02*
X145110000Y-108890000D01*
X143000000Y-108890000D02*
X134890000Y-108890000D01*
X143000000Y-108890000D02*
X143000000Y-111110000D01*
X134890000Y-108890000D02*
X134890000Y-111110000D01*
X143000000Y-111110000D02*
X134890000Y-111110000D01*
%TO.C,J2*%
X138620000Y-126120000D02*
X140000000Y-126120000D01*
X138620000Y-127500000D02*
X138620000Y-126120000D01*
X138620000Y-128770000D02*
X138620000Y-128880000D01*
X138620000Y-128770000D02*
X141380000Y-128770000D01*
X138620000Y-128880000D02*
X141380000Y-128880000D01*
X141380000Y-128770000D02*
X141380000Y-128880000D01*
%TO.C,J1*%
X138620000Y-51120000D02*
X140000000Y-51120000D01*
X138620000Y-52500000D02*
X138620000Y-51120000D01*
X138620000Y-53770000D02*
X138620000Y-53880000D01*
X138620000Y-53770000D02*
X141380000Y-53770000D01*
X138620000Y-53880000D02*
X141380000Y-53880000D01*
X141380000Y-53770000D02*
X141380000Y-53880000D01*
D10*
%TO.C,IC1*%
X143150000Y-90850000D02*
X143150000Y-100150000D01*
X143150000Y-100150000D02*
X133850000Y-100150000D01*
X133850000Y-100150000D02*
X133850000Y-90850000D01*
X133850000Y-90850000D02*
X143150000Y-90850000D01*
D14*
X143125000Y-89275000D02*
G75*
G02*
X142875000Y-89275000I-125000J0D01*
G01*
X142875000Y-89275000D02*
G75*
G02*
X143125000Y-89275000I125000J0D01*
G01*
D13*
%TO.C,C13*%
X144335000Y-123188748D02*
X144335000Y-123711252D01*
X142865000Y-123188748D02*
X142865000Y-123711252D01*
%TO.C,C12*%
X145735000Y-64288748D02*
X145735000Y-64811252D01*
X144265000Y-64288748D02*
X144265000Y-64811252D01*
%TO.C,C4*%
X136238748Y-60765000D02*
X136761252Y-60765000D01*
X136238748Y-62235000D02*
X136761252Y-62235000D01*
%TO.C,C1*%
X150735000Y-90188748D02*
X150735000Y-90711252D01*
X149265000Y-90188748D02*
X149265000Y-90711252D01*
%TD*%
M02*
