%TF.GenerationSoftware,KiCad,Pcbnew,9.0.7*%
%TF.CreationDate,2026-03-18T21:48:01+01:00*%
%TF.ProjectId,filament-humidity-sensor,66696c61-6d65-46e7-942d-68756d696469,rev?*%
%TF.SameCoordinates,Original*%
%TF.FileFunction,Soldermask,Top*%
%TF.FilePolarity,Negative*%
%FSLAX46Y46*%
G04 Gerber Fmt 4.6, Leading zero omitted, Abs format (unit mm)*
G04 Created by KiCad (PCBNEW 9.0.7) date 2026-03-18 21:48:01*
%MOMM*%
%LPD*%
G01*
G04 APERTURE LIST*
G04 Aperture macros list*
%AMRoundRect*
0 Rectangle with rounded corners*
0 $1 Rounding radius*
0 $2 $3 $4 $5 $6 $7 $8 $9 X,Y pos of 4 corners*
0 Add a 4 corners polygon primitive as box body*
4,1,4,$2,$3,$4,$5,$6,$7,$8,$9,$2,$3,0*
0 Add four circle primitives for the rounded corners*
1,1,$1+$1,$2,$3*
1,1,$1+$1,$4,$5*
1,1,$1+$1,$6,$7*
1,1,$1+$1,$8,$9*
0 Add four rect primitives between the rounded corners*
20,1,$1+$1,$2,$3,$4,$5,0*
20,1,$1+$1,$4,$5,$6,$7,0*
20,1,$1+$1,$6,$7,$8,$9,0*
20,1,$1+$1,$8,$9,$2,$3,0*%
G04 Aperture macros list end*
%ADD10C,3.200000*%
%ADD11RoundRect,0.250000X-0.475000X0.250000X-0.475000X-0.250000X0.475000X-0.250000X0.475000X0.250000X0*%
%ADD12RoundRect,0.250000X-0.250000X-0.475000X0.250000X-0.475000X0.250000X0.475000X-0.250000X0.475000X0*%
%ADD13RoundRect,0.250000X0.475000X-0.250000X0.475000X0.250000X-0.475000X0.250000X-0.475000X-0.250000X0*%
%ADD14RoundRect,0.250000X0.250000X0.475000X-0.250000X0.475000X-0.250000X-0.475000X0.250000X-0.475000X0*%
%ADD15RoundRect,0.250000X-0.262500X-0.450000X0.262500X-0.450000X0.262500X0.450000X-0.262500X0.450000X0*%
%ADD16R,1.100000X1.900000*%
%ADD17R,1.150000X0.600000*%
%ADD18R,0.500000X0.300000*%
%ADD19R,1.000000X0.800000*%
%ADD20R,1.000000X0.600000*%
%ADD21RoundRect,0.250000X0.450000X-0.262500X0.450000X0.262500X-0.450000X0.262500X-0.450000X-0.262500X0*%
%ADD22RoundRect,0.250000X-0.450000X0.262500X-0.450000X-0.262500X0.450000X-0.262500X0.450000X0.262500X0*%
%ADD23R,1.700000X1.700000*%
%ADD24C,1.700000*%
%ADD25R,1.350000X1.350000*%
%ADD26C,1.350000*%
%ADD27R,2.000000X2.000000*%
%ADD28R,0.300000X1.475000*%
%ADD29R,1.475000X0.300000*%
G04 APERTURE END LIST*
D10*
%TO.C,REF\u002A\u002A*%
X129000000Y-127500000D03*
%TD*%
%TO.C,REF\u002A\u002A*%
X153000000Y-52500000D03*
%TD*%
D11*
%TO.C,C7*%
X130500000Y-100000000D03*
X130500000Y-98100000D03*
%TD*%
%TO.C,C2*%
X146605355Y-92922855D03*
X146605355Y-91022855D03*
%TD*%
D12*
%TO.C,C5*%
X142931779Y-103481001D03*
X141031779Y-103481001D03*
%TD*%
%TO.C,C3*%
X146900000Y-87500000D03*
X145000000Y-87500000D03*
%TD*%
D13*
%TO.C,C6*%
X142500000Y-81500000D03*
X142500000Y-83400000D03*
%TD*%
D14*
%TO.C,C10*%
X135500000Y-87500000D03*
X137400000Y-87500000D03*
%TD*%
%TO.C,C14*%
X128825562Y-96314623D03*
X130725562Y-96314623D03*
%TD*%
D11*
%TO.C,C8*%
X130500000Y-93500000D03*
X130500000Y-91600000D03*
%TD*%
D13*
%TO.C,C9*%
X140000000Y-81500000D03*
X140000000Y-83400000D03*
%TD*%
D14*
%TO.C,C11*%
X135500000Y-85450000D03*
X137400000Y-85450000D03*
%TD*%
D15*
%TO.C,R7*%
X148000000Y-95000000D03*
X146175000Y-95000000D03*
%TD*%
D16*
%TO.C,Y1*%
X140000000Y-86500000D03*
X142500000Y-86500000D03*
%TD*%
D17*
%TO.C,Q1*%
X130075000Y-63600000D03*
X130075000Y-64550000D03*
X130075000Y-65500000D03*
X132675000Y-65500000D03*
X132675000Y-64550000D03*
X132675000Y-63600000D03*
%TD*%
D18*
%TO.C,IC4*%
X139600000Y-123200000D03*
X139600000Y-124000000D03*
X141000000Y-124000000D03*
X141000000Y-123200000D03*
%TD*%
D19*
%TO.C,IC3*%
X139775000Y-63500000D03*
D20*
X139775000Y-64450000D03*
D19*
X139775000Y-65400000D03*
X142175000Y-65400000D03*
X142175000Y-63500000D03*
%TD*%
D17*
%TO.C,IC2*%
X135575000Y-63600000D03*
X135575000Y-64550000D03*
X135575000Y-65500000D03*
X137175000Y-65500000D03*
X137175000Y-64550000D03*
X137175000Y-63600000D03*
%TD*%
D21*
%TO.C,R6*%
X135000000Y-124325000D03*
X135000000Y-122500000D03*
%TD*%
%TO.C,R5*%
X137000000Y-124325000D03*
X137000000Y-122500000D03*
%TD*%
%TO.C,R4*%
X138000000Y-70500000D03*
X138000000Y-68675000D03*
%TD*%
D22*
%TO.C,R3*%
X140000000Y-68675000D03*
X140000000Y-70500000D03*
%TD*%
%TO.C,R2*%
X136000000Y-68675000D03*
X136000000Y-70500000D03*
%TD*%
%TO.C,R1*%
X150000000Y-85675000D03*
X150000000Y-87500000D03*
%TD*%
D23*
%TO.C,J5*%
X153000000Y-78000000D03*
D24*
X153000000Y-80540000D03*
X153000000Y-83080000D03*
X153000000Y-85620000D03*
X153000000Y-88160000D03*
%TD*%
D25*
%TO.C,J4*%
X136000000Y-120000000D03*
D26*
X138000000Y-120000000D03*
X140000000Y-120000000D03*
X142000000Y-120000000D03*
X144000000Y-120000000D03*
%TD*%
D25*
%TO.C,J3*%
X144000000Y-110000000D03*
D26*
X142000000Y-110000000D03*
X140000000Y-110000000D03*
X138000000Y-110000000D03*
X136000000Y-110000000D03*
%TD*%
D27*
%TO.C,J2*%
X140000000Y-127500000D03*
%TD*%
%TO.C,J1*%
X140000000Y-52500000D03*
%TD*%
D28*
%TO.C,IC1*%
X142250000Y-89762000D03*
X141750000Y-89762000D03*
X141250000Y-89762000D03*
X140750000Y-89762000D03*
X140250000Y-89762000D03*
X139750000Y-89762000D03*
X139250000Y-89762000D03*
X138750000Y-89762000D03*
X138250000Y-89762000D03*
X137750000Y-89762000D03*
X137250000Y-89762000D03*
X136750000Y-89762000D03*
X136250000Y-89762000D03*
X135750000Y-89762000D03*
X135250000Y-89762000D03*
X134750000Y-89762000D03*
D29*
X132762000Y-91750000D03*
X132762000Y-92250000D03*
X132762000Y-92750000D03*
X132762000Y-93250000D03*
X132762000Y-93750000D03*
X132762000Y-94250000D03*
X132762000Y-94750000D03*
X132762000Y-95250000D03*
X132762000Y-95750000D03*
X132762000Y-96250000D03*
X132762000Y-96750000D03*
X132762000Y-97250000D03*
X132762000Y-97750000D03*
X132762000Y-98250000D03*
X132762000Y-98750000D03*
X132762000Y-99250000D03*
D28*
X134750000Y-101238000D03*
X135250000Y-101238000D03*
X135750000Y-101238000D03*
X136250000Y-101238000D03*
X136750000Y-101238000D03*
X137250000Y-101238000D03*
X137750000Y-101238000D03*
X138250000Y-101238000D03*
X138750000Y-101238000D03*
X139250000Y-101238000D03*
X139750000Y-101238000D03*
X140250000Y-101238000D03*
X140750000Y-101238000D03*
X141250000Y-101238000D03*
X141750000Y-101238000D03*
X142250000Y-101238000D03*
D29*
X144238000Y-99250000D03*
X144238000Y-98750000D03*
X144238000Y-98250000D03*
X144238000Y-97750000D03*
X144238000Y-97250000D03*
X144238000Y-96750000D03*
X144238000Y-96250000D03*
X144238000Y-95750000D03*
X144238000Y-95250000D03*
X144238000Y-94750000D03*
X144238000Y-94250000D03*
X144238000Y-93750000D03*
X144238000Y-93250000D03*
X144238000Y-92750000D03*
X144238000Y-92250000D03*
X144238000Y-91750000D03*
%TD*%
D11*
%TO.C,C13*%
X143600000Y-122500000D03*
X143600000Y-124400000D03*
%TD*%
%TO.C,C12*%
X145000000Y-63600000D03*
X145000000Y-65500000D03*
%TD*%
D12*
%TO.C,C4*%
X135550000Y-61500000D03*
X137450000Y-61500000D03*
%TD*%
D11*
%TO.C,C1*%
X150000000Y-89500000D03*
X150000000Y-91400000D03*
%TD*%
M02*
