%TF.GenerationSoftware,KiCad,Pcbnew,9.0.7*%
%TF.CreationDate,2026-03-18T21:48:00+01:00*%
%TF.ProjectId,filament-humidity-sensor,66696c61-6d65-46e7-942d-68756d696469,rev?*%
%TF.SameCoordinates,Original*%
%TF.FileFunction,Copper,L2,Bot*%
%TF.FilePolarity,Positive*%
%FSLAX46Y46*%
G04 Gerber Fmt 4.6, Leading zero omitted, Abs format (unit mm)*
G04 Created by KiCad (PCBNEW 9.0.7) date 2026-03-18 21:48:00*
%MOMM*%
%LPD*%
G01*
G04 APERTURE LIST*
%TA.AperFunction,ComponentPad*%
%ADD10R,1.700000X1.700000*%
%TD*%
%TA.AperFunction,ComponentPad*%
%ADD11C,1.700000*%
%TD*%
%TA.AperFunction,ComponentPad*%
%ADD12R,1.350000X1.350000*%
%TD*%
%TA.AperFunction,ComponentPad*%
%ADD13C,1.350000*%
%TD*%
%TA.AperFunction,ComponentPad*%
%ADD14R,2.000000X2.000000*%
%TD*%
%TA.AperFunction,ViaPad*%
%ADD15C,0.600000*%
%TD*%
%TA.AperFunction,Conductor*%
%ADD16C,0.200000*%
%TD*%
%TA.AperFunction,Conductor*%
%ADD17C,0.500000*%
%TD*%
G04 APERTURE END LIST*
D10*
%TO.P,J5,1,Pin_1*%
%TO.N,+3V3*%
X153000000Y-78000000D03*
D11*
%TO.P,J5,2,Pin_2*%
%TO.N,SWDIO*%
X153000000Y-80540000D03*
%TO.P,J5,3,Pin_3*%
%TO.N,GND*%
X153000000Y-83080000D03*
%TO.P,J5,4,Pin_4*%
%TO.N,SWCLK*%
X153000000Y-85620000D03*
%TO.P,J5,5,Pin_5*%
%TO.N,NRST*%
X153000000Y-88160000D03*
%TD*%
D12*
%TO.P,J4,1,Pin_1*%
%TO.N,LCD_SEG0*%
X136000000Y-120000000D03*
D13*
%TO.P,J4,2,Pin_2*%
%TO.N,LCD_SEG1*%
X138000000Y-120000000D03*
%TO.P,J4,3,Pin_3*%
%TO.N,LCD_SEG2*%
X140000000Y-120000000D03*
%TO.P,J4,4,Pin_4*%
%TO.N,LCD_SEG3*%
X142000000Y-120000000D03*
%TO.P,J4,5,Pin_5*%
%TO.N,LCD_SEG4*%
X144000000Y-120000000D03*
%TD*%
D12*
%TO.P,J3,1,Pin_1*%
%TO.N,LCD_SEG5*%
X144000000Y-110000000D03*
D13*
%TO.P,J3,2,Pin_2*%
%TO.N,LCD_COM3*%
X142000000Y-110000000D03*
%TO.P,J3,3,Pin_3*%
%TO.N,LCD_COM2*%
X140000000Y-110000000D03*
%TO.P,J3,4,Pin_4*%
%TO.N,LCD_COM1*%
X138000000Y-110000000D03*
%TO.P,J3,5,Pin_5*%
%TO.N,LCD_COM0*%
X136000000Y-110000000D03*
%TD*%
D14*
%TO.P,J2,1,Pin_1*%
%TO.N,BAT -*%
X140000000Y-127500000D03*
%TD*%
%TO.P,J1,1,Pin_1*%
%TO.N,BAT +*%
X140000000Y-52500000D03*
%TD*%
D15*
%TO.N,+3V3*%
X150875707Y-93375707D03*
X153007786Y-93507786D03*
%TO.N,LCD_COM3*%
X143699997Y-106750000D03*
%TO.N,+3V3*%
X145000000Y-123500000D03*
X138449000Y-123000000D03*
%TO.N,LCD_SEG4*%
X145400000Y-105250000D03*
X145674265Y-113674265D03*
%TO.N,LCD_SEG5*%
X144500000Y-106750000D03*
%TO.N,I2C1_SDA*%
X142400000Y-96000000D03*
X146800003Y-106750000D03*
%TO.N,I2C1_SCL*%
X143000000Y-97000000D03*
X146000000Y-106750000D03*
%TO.N,LCD_SEG2*%
X128892228Y-99284456D03*
X133999498Y-93401027D03*
%TO.N,BAT +*%
X141174998Y-63500000D03*
X141280331Y-66280331D03*
%TO.N,Net-(IC2-VCC)*%
X139000000Y-67500000D03*
%TO.N,GND*%
X145500000Y-70500000D03*
X144500000Y-70500000D03*
X144500000Y-69500000D03*
X145500000Y-69500000D03*
X145500000Y-68500000D03*
X144500000Y-68500000D03*
X144500000Y-67500000D03*
X145500000Y-67500000D03*
X145500000Y-66500000D03*
X144500000Y-66500000D03*
X130000000Y-66500000D03*
%TO.N,Net-(IC2-VCC)*%
X139000000Y-61500000D03*
%TO.N,GND*%
X139000000Y-64549000D03*
X136000000Y-72000000D03*
%TO.N,LCD_SEG1*%
X135000000Y-92998997D03*
X133817546Y-103108337D03*
%TO.N,LCD_SEG5*%
X134438850Y-96162598D03*
X134899000Y-94199997D03*
X141900000Y-98000000D03*
%TO.N,LCD_COM3*%
X142500000Y-98699997D03*
X143531779Y-102279805D03*
%TO.N,LCD_SEG4*%
X131500000Y-95000000D03*
X134899000Y-95000000D03*
X142500000Y-99500000D03*
X142900002Y-100799500D03*
%TO.N,LCD_SEG3*%
X130389840Y-95093371D03*
X133298000Y-102500000D03*
X131637693Y-100607357D03*
X134899000Y-102500000D03*
%TO.N,GND*%
X150000000Y-92500000D03*
X151500000Y-83000000D03*
X129250000Y-100000000D03*
X129250000Y-93500000D03*
X128750000Y-97500000D03*
X135750000Y-84000000D03*
X148250000Y-93000000D03*
X148250000Y-87500000D03*
X144250000Y-81500000D03*
X138250000Y-81500000D03*
X149250000Y-95000000D03*
X142750000Y-105000000D03*
X145000000Y-122500000D03*
%TO.N,Net-(IC2-CS)*%
X134000000Y-64500000D03*
X136000000Y-67500000D03*
%TD*%
D16*
%TO.N,+3V3*%
X150875707Y-93375707D02*
X152875707Y-93375707D01*
X152875707Y-93375707D02*
X153007786Y-93507786D01*
%TO.N,LCD_COM3*%
X143699997Y-106750000D02*
X143699997Y-102448023D01*
X143699997Y-102448023D02*
X143531779Y-102279805D01*
D17*
%TO.N,+3V3*%
X138949000Y-123500000D02*
X145000000Y-123500000D01*
X138449000Y-123000000D02*
X138949000Y-123500000D01*
D16*
%TO.N,LCD_SEG4*%
X145674265Y-113674265D02*
X145400000Y-113400000D01*
X145400000Y-113400000D02*
X145400000Y-105250000D01*
%TO.N,LCD_SEG5*%
X144500000Y-103248025D02*
X144332779Y-103080804D01*
X144500000Y-106750000D02*
X144500000Y-103248025D01*
%TO.N,I2C1_SDA*%
X143000000Y-96000000D02*
X142400000Y-96000000D01*
X146800003Y-99800003D02*
X143000000Y-96000000D01*
X146800003Y-106750000D02*
X146800003Y-99800003D01*
%TO.N,I2C1_SCL*%
X146000000Y-100782954D02*
X146000000Y-106750000D01*
X143000000Y-97782954D02*
X146000000Y-100782954D01*
X143000000Y-97000000D02*
X143000000Y-97782954D01*
%TO.N,LCD_SEG2*%
X129788840Y-98387844D02*
X128892228Y-99284456D01*
X129788840Y-94844428D02*
X129788840Y-98387844D01*
X131232241Y-93401027D02*
X129788840Y-94844428D01*
X133999498Y-93401027D02*
X131232241Y-93401027D01*
D17*
%TO.N,BAT +*%
X138249000Y-66425998D02*
X141174998Y-63500000D01*
X139309662Y-68251000D02*
X138688925Y-68251000D01*
X141280331Y-66280331D02*
X139309662Y-68251000D01*
X138249000Y-67811075D02*
X138249000Y-66425998D01*
X138688925Y-68251000D02*
X138249000Y-67811075D01*
%TO.N,Net-(IC2-VCC)*%
X143000000Y-63500000D02*
X139000000Y-67500000D01*
X143000000Y-61549000D02*
X143000000Y-63500000D01*
X139049000Y-61549000D02*
X139000000Y-61500000D01*
X143000000Y-61549000D02*
X139049000Y-61549000D01*
D16*
%TO.N,LCD_SEG1*%
X136600000Y-94598997D02*
X135000000Y-92998997D01*
X136600000Y-95113702D02*
X136600000Y-94598997D01*
X132697000Y-102748943D02*
X132697000Y-99016702D01*
X133056394Y-103108337D02*
X132697000Y-102748943D01*
X133817546Y-103108337D02*
X133056394Y-103108337D01*
X132697000Y-99016702D02*
X136600000Y-95113702D01*
%TO.N,LCD_SEG5*%
X134586345Y-96162598D02*
X134438850Y-96162598D01*
X135500000Y-95248943D02*
X134586345Y-96162598D01*
X135500000Y-94751057D02*
X135500000Y-95248943D01*
X134948940Y-94199997D02*
X135500000Y-94751057D01*
X134899000Y-94199997D02*
X134948940Y-94199997D01*
X142649946Y-98000000D02*
X141900000Y-98000000D01*
X144332779Y-103080804D02*
X144332779Y-99682833D01*
X144332779Y-99682833D02*
X142649946Y-98000000D01*
%TO.N,LCD_COM3*%
X142500000Y-98899000D02*
X142500000Y-98699997D01*
X142899000Y-98899000D02*
X142500000Y-98899000D01*
X143531779Y-99531779D02*
X142899000Y-98899000D01*
X143531779Y-102279805D02*
X143531779Y-99531779D01*
%TO.N,LCD_SEG4*%
X131500000Y-95000000D02*
X134899000Y-95000000D01*
%TO.N,LCD_SEG3*%
X130389840Y-95093371D02*
X131637693Y-96341224D01*
X131637693Y-96341224D02*
X131637693Y-100607357D01*
%TO.N,LCD_SEG4*%
X142900002Y-99900002D02*
X142500000Y-99500000D01*
X142900002Y-100799500D02*
X142900002Y-99900002D01*
%TO.N,LCD_SEG3*%
X134899000Y-102500000D02*
X133298000Y-102500000D01*
D17*
%TO.N,Net-(IC2-CS)*%
X134000000Y-65500000D02*
X136000000Y-67500000D01*
X134000000Y-64500000D02*
X134000000Y-65500000D01*
%TD*%
%TA.AperFunction,Conductor*%
%TO.N,GND*%
G36*
X153503244Y-49000670D02*
G01*
X153807046Y-49016592D01*
X153819953Y-49017949D01*
X153951089Y-49038718D01*
X154117209Y-49065028D01*
X154129896Y-49067724D01*
X154420625Y-49145625D01*
X154432965Y-49149635D01*
X154713938Y-49257490D01*
X154725790Y-49262767D01*
X154993968Y-49399411D01*
X155005199Y-49405896D01*
X155257608Y-49569812D01*
X155268109Y-49577441D01*
X155502010Y-49766850D01*
X155511655Y-49775535D01*
X155724464Y-49988344D01*
X155733149Y-49997989D01*
X155922558Y-50231890D01*
X155930187Y-50242391D01*
X156094101Y-50494796D01*
X156100591Y-50506036D01*
X156237231Y-50774206D01*
X156242510Y-50786064D01*
X156350363Y-51067033D01*
X156354374Y-51079376D01*
X156432273Y-51370097D01*
X156434971Y-51382794D01*
X156482050Y-51680046D01*
X156483407Y-51692953D01*
X156499330Y-51996756D01*
X156499500Y-52003246D01*
X156499500Y-127996753D01*
X156499330Y-128003243D01*
X156483407Y-128307046D01*
X156482050Y-128319953D01*
X156434971Y-128617205D01*
X156432273Y-128629902D01*
X156354374Y-128920623D01*
X156350363Y-128932966D01*
X156242510Y-129213935D01*
X156237231Y-129225793D01*
X156100591Y-129493963D01*
X156094101Y-129505203D01*
X155930187Y-129757608D01*
X155922558Y-129768109D01*
X155733149Y-130002010D01*
X155724464Y-130011655D01*
X155511655Y-130224464D01*
X155502010Y-130233149D01*
X155268109Y-130422558D01*
X155257608Y-130430187D01*
X155005203Y-130594101D01*
X154993963Y-130600591D01*
X154725793Y-130737231D01*
X154713935Y-130742510D01*
X154432966Y-130850363D01*
X154420623Y-130854374D01*
X154129902Y-130932273D01*
X154117205Y-130934971D01*
X153819953Y-130982050D01*
X153807046Y-130983407D01*
X153503244Y-130999330D01*
X153496754Y-130999500D01*
X128503246Y-130999500D01*
X128496756Y-130999330D01*
X128192953Y-130983407D01*
X128180046Y-130982050D01*
X127882794Y-130934971D01*
X127870097Y-130932273D01*
X127579376Y-130854374D01*
X127567033Y-130850363D01*
X127286064Y-130742510D01*
X127274206Y-130737231D01*
X127006036Y-130600591D01*
X126994796Y-130594101D01*
X126742391Y-130430187D01*
X126731890Y-130422558D01*
X126497989Y-130233149D01*
X126488344Y-130224464D01*
X126275535Y-130011655D01*
X126266850Y-130002010D01*
X126077441Y-129768109D01*
X126069812Y-129757608D01*
X125905896Y-129505199D01*
X125899408Y-129493963D01*
X125762768Y-129225793D01*
X125757489Y-129213935D01*
X125673099Y-128994091D01*
X125649635Y-128932965D01*
X125645625Y-128920623D01*
X125638563Y-128894266D01*
X125567724Y-128629896D01*
X125565028Y-128617205D01*
X125517949Y-128319953D01*
X125516592Y-128307046D01*
X125500670Y-128003243D01*
X125500500Y-127996753D01*
X125500500Y-127378711D01*
X127149500Y-127378711D01*
X127149500Y-127621288D01*
X127181161Y-127861785D01*
X127243947Y-128096104D01*
X127280750Y-128184954D01*
X127336776Y-128320212D01*
X127458064Y-128530289D01*
X127458066Y-128530292D01*
X127458067Y-128530293D01*
X127605733Y-128722736D01*
X127605739Y-128722743D01*
X127777256Y-128894260D01*
X127777263Y-128894266D01*
X127827698Y-128932966D01*
X127969711Y-129041936D01*
X128179788Y-129163224D01*
X128403900Y-129256054D01*
X128638211Y-129318838D01*
X128818586Y-129342584D01*
X128878711Y-129350500D01*
X128878712Y-129350500D01*
X129121289Y-129350500D01*
X129169388Y-129344167D01*
X129361789Y-129318838D01*
X129596100Y-129256054D01*
X129820212Y-129163224D01*
X130030289Y-129041936D01*
X130222738Y-128894265D01*
X130394265Y-128722738D01*
X130541936Y-128530289D01*
X130663224Y-128320212D01*
X130756054Y-128096100D01*
X130818838Y-127861789D01*
X130850500Y-127621288D01*
X130850500Y-127378712D01*
X130818838Y-127138211D01*
X130756054Y-126903900D01*
X130663224Y-126679788D01*
X130541936Y-126469711D01*
X130541930Y-126469703D01*
X130528450Y-126452135D01*
X138499500Y-126452135D01*
X138499500Y-128547870D01*
X138499501Y-128547876D01*
X138505908Y-128607483D01*
X138556202Y-128742328D01*
X138556206Y-128742335D01*
X138642452Y-128857544D01*
X138642455Y-128857547D01*
X138757664Y-128943793D01*
X138757671Y-128943797D01*
X138892517Y-128994091D01*
X138892516Y-128994091D01*
X138899444Y-128994835D01*
X138952127Y-129000500D01*
X141047872Y-129000499D01*
X141107483Y-128994091D01*
X141242331Y-128943796D01*
X141357546Y-128857546D01*
X141443796Y-128742331D01*
X141494091Y-128607483D01*
X141500500Y-128547873D01*
X141500499Y-126452128D01*
X141494091Y-126392517D01*
X141451101Y-126277256D01*
X141443797Y-126257671D01*
X141443793Y-126257664D01*
X141357547Y-126142455D01*
X141357544Y-126142452D01*
X141242335Y-126056206D01*
X141242328Y-126056202D01*
X141107482Y-126005908D01*
X141107483Y-126005908D01*
X141047883Y-125999501D01*
X141047881Y-125999500D01*
X141047873Y-125999500D01*
X141047864Y-125999500D01*
X138952129Y-125999500D01*
X138952123Y-125999501D01*
X138892516Y-126005908D01*
X138757671Y-126056202D01*
X138757664Y-126056206D01*
X138642455Y-126142452D01*
X138642452Y-126142455D01*
X138556206Y-126257664D01*
X138556202Y-126257671D01*
X138505908Y-126392517D01*
X138499501Y-126452116D01*
X138499501Y-126452123D01*
X138499500Y-126452135D01*
X130528450Y-126452135D01*
X130394266Y-126277263D01*
X130394260Y-126277256D01*
X130222743Y-126105739D01*
X130222736Y-126105733D01*
X130030293Y-125958067D01*
X130030292Y-125958066D01*
X130030289Y-125958064D01*
X129820212Y-125836776D01*
X129820205Y-125836773D01*
X129596104Y-125743947D01*
X129361785Y-125681161D01*
X129121289Y-125649500D01*
X129121288Y-125649500D01*
X128878712Y-125649500D01*
X128878711Y-125649500D01*
X128638214Y-125681161D01*
X128403895Y-125743947D01*
X128179794Y-125836773D01*
X128179785Y-125836777D01*
X127969706Y-125958067D01*
X127777263Y-126105733D01*
X127777256Y-126105739D01*
X127605739Y-126277256D01*
X127605733Y-126277263D01*
X127458067Y-126469706D01*
X127336777Y-126679785D01*
X127336773Y-126679794D01*
X127243947Y-126903895D01*
X127181161Y-127138214D01*
X127149500Y-127378711D01*
X125500500Y-127378711D01*
X125500500Y-122921153D01*
X137648500Y-122921153D01*
X137648500Y-123078846D01*
X137679261Y-123233489D01*
X137679264Y-123233501D01*
X137739602Y-123379172D01*
X137739609Y-123379185D01*
X137827210Y-123510288D01*
X137827213Y-123510292D01*
X137938710Y-123621789D01*
X138069815Y-123709390D01*
X138069821Y-123709394D01*
X138093475Y-123719191D01*
X138133703Y-123746071D01*
X138470578Y-124082947D01*
X138470585Y-124082953D01*
X138528704Y-124121786D01*
X138528706Y-124121787D01*
X138528709Y-124121789D01*
X138593505Y-124165084D01*
X138730087Y-124221658D01*
X138730091Y-124221658D01*
X138730092Y-124221659D01*
X138875079Y-124250500D01*
X138875082Y-124250500D01*
X138875083Y-124250500D01*
X139022918Y-124250500D01*
X144695396Y-124250500D01*
X144742844Y-124259937D01*
X144766503Y-124269737D01*
X144766508Y-124269738D01*
X144766511Y-124269739D01*
X144921153Y-124300499D01*
X144921156Y-124300500D01*
X144921158Y-124300500D01*
X145078844Y-124300500D01*
X145078845Y-124300499D01*
X145233497Y-124269737D01*
X145379179Y-124209394D01*
X145510289Y-124121789D01*
X145621789Y-124010289D01*
X145709394Y-123879179D01*
X145769737Y-123733497D01*
X145800500Y-123578842D01*
X145800500Y-123421158D01*
X145800500Y-123421155D01*
X145800499Y-123421153D01*
X145769738Y-123266510D01*
X145769737Y-123266503D01*
X145756062Y-123233489D01*
X145709397Y-123120827D01*
X145709390Y-123120814D01*
X145621789Y-122989711D01*
X145621786Y-122989707D01*
X145510292Y-122878213D01*
X145510288Y-122878210D01*
X145379185Y-122790609D01*
X145379172Y-122790602D01*
X145233501Y-122730264D01*
X145233489Y-122730261D01*
X145078845Y-122699500D01*
X145078842Y-122699500D01*
X144921158Y-122699500D01*
X144921155Y-122699500D01*
X144766511Y-122730260D01*
X144766506Y-122730262D01*
X144766504Y-122730262D01*
X144766503Y-122730263D01*
X144742844Y-122740062D01*
X144695396Y-122749500D01*
X139311230Y-122749500D01*
X139281789Y-122740855D01*
X139251803Y-122734332D01*
X139246787Y-122730577D01*
X139244191Y-122729815D01*
X139223549Y-122713181D01*
X139195071Y-122684703D01*
X139168191Y-122644475D01*
X139158394Y-122620821D01*
X139158389Y-122620814D01*
X139070789Y-122489710D01*
X138959292Y-122378213D01*
X138959288Y-122378210D01*
X138828185Y-122290609D01*
X138828172Y-122290602D01*
X138682501Y-122230264D01*
X138682489Y-122230261D01*
X138527845Y-122199500D01*
X138527842Y-122199500D01*
X138370158Y-122199500D01*
X138370155Y-122199500D01*
X138215510Y-122230261D01*
X138215498Y-122230264D01*
X138069827Y-122290602D01*
X138069814Y-122290609D01*
X137938711Y-122378210D01*
X137938707Y-122378213D01*
X137827213Y-122489707D01*
X137827210Y-122489711D01*
X137739609Y-122620814D01*
X137739602Y-122620827D01*
X137679264Y-122766498D01*
X137679261Y-122766510D01*
X137648500Y-122921153D01*
X125500500Y-122921153D01*
X125500500Y-119277135D01*
X134824500Y-119277135D01*
X134824500Y-120722870D01*
X134824501Y-120722876D01*
X134830908Y-120782483D01*
X134881202Y-120917328D01*
X134881206Y-120917335D01*
X134967452Y-121032544D01*
X134967455Y-121032547D01*
X135082664Y-121118793D01*
X135082671Y-121118797D01*
X135217517Y-121169091D01*
X135217516Y-121169091D01*
X135224444Y-121169835D01*
X135277127Y-121175500D01*
X136722872Y-121175499D01*
X136782483Y-121169091D01*
X136917331Y-121118796D01*
X137032546Y-121032546D01*
X137096241Y-120947459D01*
X137152174Y-120905590D01*
X137221866Y-120900606D01*
X137268392Y-120921453D01*
X137383904Y-121005378D01*
X137437224Y-121032546D01*
X137548764Y-121089379D01*
X137548767Y-121089380D01*
X137636750Y-121117967D01*
X137724736Y-121146555D01*
X137907486Y-121175500D01*
X137907487Y-121175500D01*
X138092513Y-121175500D01*
X138092514Y-121175500D01*
X138275264Y-121146555D01*
X138451235Y-121089379D01*
X138616096Y-121005378D01*
X138765787Y-120896621D01*
X138896621Y-120765787D01*
X138899680Y-120761576D01*
X138955006Y-120718909D01*
X139024619Y-120712926D01*
X139086415Y-120745529D01*
X139100315Y-120761570D01*
X139103379Y-120765787D01*
X139234213Y-120896621D01*
X139383904Y-121005378D01*
X139437224Y-121032546D01*
X139548764Y-121089379D01*
X139548767Y-121089380D01*
X139636750Y-121117967D01*
X139724736Y-121146555D01*
X139907486Y-121175500D01*
X139907487Y-121175500D01*
X140092513Y-121175500D01*
X140092514Y-121175500D01*
X140275264Y-121146555D01*
X140451235Y-121089379D01*
X140616096Y-121005378D01*
X140765787Y-120896621D01*
X140896621Y-120765787D01*
X140899680Y-120761576D01*
X140955006Y-120718909D01*
X141024619Y-120712926D01*
X141086415Y-120745529D01*
X141100315Y-120761570D01*
X141103379Y-120765787D01*
X141234213Y-120896621D01*
X141383904Y-121005378D01*
X141437224Y-121032546D01*
X141548764Y-121089379D01*
X141548767Y-121089380D01*
X141636750Y-121117967D01*
X141724736Y-121146555D01*
X141907486Y-121175500D01*
X141907487Y-121175500D01*
X142092513Y-121175500D01*
X142092514Y-121175500D01*
X142275264Y-121146555D01*
X142451235Y-121089379D01*
X142616096Y-121005378D01*
X142765787Y-120896621D01*
X142896621Y-120765787D01*
X142899680Y-120761576D01*
X142955006Y-120718909D01*
X143024619Y-120712926D01*
X143086415Y-120745529D01*
X143100315Y-120761570D01*
X143103379Y-120765787D01*
X143234213Y-120896621D01*
X143383904Y-121005378D01*
X143437224Y-121032546D01*
X143548764Y-121089379D01*
X143548767Y-121089380D01*
X143636750Y-121117967D01*
X143724736Y-121146555D01*
X143907486Y-121175500D01*
X143907487Y-121175500D01*
X144092513Y-121175500D01*
X144092514Y-121175500D01*
X144275264Y-121146555D01*
X144451235Y-121089379D01*
X144616096Y-121005378D01*
X144765787Y-120896621D01*
X144896621Y-120765787D01*
X145005378Y-120616096D01*
X145089379Y-120451235D01*
X145146555Y-120275264D01*
X145175500Y-120092514D01*
X145175500Y-119907486D01*
X145146555Y-119724736D01*
X145089379Y-119548765D01*
X145089379Y-119548764D01*
X145005377Y-119383903D01*
X144999999Y-119376501D01*
X144896621Y-119234213D01*
X144765787Y-119103379D01*
X144616096Y-118994622D01*
X144562778Y-118967455D01*
X144451235Y-118910620D01*
X144451232Y-118910619D01*
X144275265Y-118853445D01*
X144132972Y-118830908D01*
X144092514Y-118824500D01*
X143907486Y-118824500D01*
X143867028Y-118830908D01*
X143724734Y-118853445D01*
X143548767Y-118910619D01*
X143548764Y-118910620D01*
X143383903Y-118994622D01*
X143304188Y-119052539D01*
X143234213Y-119103379D01*
X143234211Y-119103381D01*
X143234210Y-119103381D01*
X143103381Y-119234210D01*
X143100314Y-119238432D01*
X143044981Y-119281094D01*
X142975367Y-119287069D01*
X142913574Y-119254459D01*
X142899686Y-119238432D01*
X142896621Y-119234213D01*
X142765787Y-119103379D01*
X142616096Y-118994622D01*
X142562778Y-118967455D01*
X142451235Y-118910620D01*
X142451232Y-118910619D01*
X142275265Y-118853445D01*
X142132972Y-118830908D01*
X142092514Y-118824500D01*
X141907486Y-118824500D01*
X141867028Y-118830908D01*
X141724734Y-118853445D01*
X141548767Y-118910619D01*
X141548764Y-118910620D01*
X141383903Y-118994622D01*
X141304188Y-119052539D01*
X141234213Y-119103379D01*
X141234211Y-119103381D01*
X141234210Y-119103381D01*
X141103381Y-119234210D01*
X141100314Y-119238432D01*
X141044981Y-119281094D01*
X140975367Y-119287069D01*
X140913574Y-119254459D01*
X140899686Y-119238432D01*
X140896621Y-119234213D01*
X140765787Y-119103379D01*
X140616096Y-118994622D01*
X140562778Y-118967455D01*
X140451235Y-118910620D01*
X140451232Y-118910619D01*
X140275265Y-118853445D01*
X140132972Y-118830908D01*
X140092514Y-118824500D01*
X139907486Y-118824500D01*
X139867028Y-118830908D01*
X139724734Y-118853445D01*
X139548767Y-118910619D01*
X139548764Y-118910620D01*
X139383903Y-118994622D01*
X139304188Y-119052539D01*
X139234213Y-119103379D01*
X139234211Y-119103381D01*
X139234210Y-119103381D01*
X139103381Y-119234210D01*
X139100314Y-119238432D01*
X139044981Y-119281094D01*
X138975367Y-119287069D01*
X138913574Y-119254459D01*
X138899686Y-119238432D01*
X138896621Y-119234213D01*
X138765787Y-119103379D01*
X138616096Y-118994622D01*
X138562778Y-118967455D01*
X138451235Y-118910620D01*
X138451232Y-118910619D01*
X138275265Y-118853445D01*
X138132972Y-118830908D01*
X138092514Y-118824500D01*
X137907486Y-118824500D01*
X137867028Y-118830908D01*
X137724734Y-118853445D01*
X137548767Y-118910619D01*
X137548764Y-118910620D01*
X137383900Y-118994624D01*
X137268392Y-119078545D01*
X137202586Y-119102025D01*
X137134532Y-119086199D01*
X137096241Y-119052539D01*
X137052884Y-118994622D01*
X137032546Y-118967454D01*
X137032544Y-118967453D01*
X137032544Y-118967452D01*
X136917335Y-118881206D01*
X136917328Y-118881202D01*
X136782482Y-118830908D01*
X136782483Y-118830908D01*
X136722883Y-118824501D01*
X136722881Y-118824500D01*
X136722873Y-118824500D01*
X136722864Y-118824500D01*
X135277129Y-118824500D01*
X135277123Y-118824501D01*
X135217516Y-118830908D01*
X135082671Y-118881202D01*
X135082664Y-118881206D01*
X134967455Y-118967452D01*
X134967452Y-118967455D01*
X134881206Y-119082664D01*
X134881202Y-119082671D01*
X134830908Y-119217517D01*
X134824501Y-119277116D01*
X134824500Y-119277135D01*
X125500500Y-119277135D01*
X125500500Y-109907486D01*
X134824500Y-109907486D01*
X134824500Y-110092513D01*
X134853445Y-110275265D01*
X134910619Y-110451232D01*
X134910620Y-110451235D01*
X134994622Y-110616096D01*
X135103379Y-110765787D01*
X135234213Y-110896621D01*
X135383904Y-111005378D01*
X135437224Y-111032546D01*
X135548764Y-111089379D01*
X135548767Y-111089380D01*
X135636750Y-111117967D01*
X135724736Y-111146555D01*
X135907486Y-111175500D01*
X135907487Y-111175500D01*
X136092513Y-111175500D01*
X136092514Y-111175500D01*
X136275264Y-111146555D01*
X136451235Y-111089379D01*
X136616096Y-111005378D01*
X136765787Y-110896621D01*
X136896621Y-110765787D01*
X136899680Y-110761576D01*
X136955006Y-110718909D01*
X137024619Y-110712926D01*
X137086415Y-110745529D01*
X137100315Y-110761570D01*
X137103379Y-110765787D01*
X137234213Y-110896621D01*
X137383904Y-111005378D01*
X137437224Y-111032546D01*
X137548764Y-111089379D01*
X137548767Y-111089380D01*
X137636750Y-111117967D01*
X137724736Y-111146555D01*
X137907486Y-111175500D01*
X137907487Y-111175500D01*
X138092513Y-111175500D01*
X138092514Y-111175500D01*
X138275264Y-111146555D01*
X138451235Y-111089379D01*
X138616096Y-111005378D01*
X138765787Y-110896621D01*
X138896621Y-110765787D01*
X138899680Y-110761576D01*
X138955006Y-110718909D01*
X139024619Y-110712926D01*
X139086415Y-110745529D01*
X139100315Y-110761570D01*
X139103379Y-110765787D01*
X139234213Y-110896621D01*
X139383904Y-111005378D01*
X139437224Y-111032546D01*
X139548764Y-111089379D01*
X139548767Y-111089380D01*
X139636750Y-111117967D01*
X139724736Y-111146555D01*
X139907486Y-111175500D01*
X139907487Y-111175500D01*
X140092513Y-111175500D01*
X140092514Y-111175500D01*
X140275264Y-111146555D01*
X140451235Y-111089379D01*
X140616096Y-111005378D01*
X140765787Y-110896621D01*
X140896621Y-110765787D01*
X140899680Y-110761576D01*
X140955006Y-110718909D01*
X141024619Y-110712926D01*
X141086415Y-110745529D01*
X141100315Y-110761570D01*
X141103379Y-110765787D01*
X141234213Y-110896621D01*
X141383904Y-111005378D01*
X141437224Y-111032546D01*
X141548764Y-111089379D01*
X141548767Y-111089380D01*
X141636750Y-111117967D01*
X141724736Y-111146555D01*
X141907486Y-111175500D01*
X141907487Y-111175500D01*
X142092513Y-111175500D01*
X142092514Y-111175500D01*
X142275264Y-111146555D01*
X142451235Y-111089379D01*
X142616096Y-111005378D01*
X142731608Y-110921453D01*
X142797412Y-110897974D01*
X142865466Y-110913799D01*
X142903758Y-110947460D01*
X142967455Y-111032547D01*
X143082664Y-111118793D01*
X143082671Y-111118797D01*
X143217517Y-111169091D01*
X143217516Y-111169091D01*
X143224444Y-111169835D01*
X143277127Y-111175500D01*
X144675500Y-111175499D01*
X144742539Y-111195184D01*
X144788294Y-111247987D01*
X144799500Y-111299499D01*
X144799500Y-113313330D01*
X144799499Y-113313348D01*
X144799499Y-113479054D01*
X144799498Y-113479054D01*
X144799499Y-113479057D01*
X144840423Y-113631785D01*
X144857151Y-113660758D01*
X144873765Y-113722759D01*
X144873765Y-113753111D01*
X144904526Y-113907754D01*
X144904529Y-113907766D01*
X144964867Y-114053437D01*
X144964874Y-114053450D01*
X145052475Y-114184553D01*
X145052478Y-114184557D01*
X145163972Y-114296051D01*
X145163976Y-114296054D01*
X145295079Y-114383655D01*
X145295092Y-114383662D01*
X145440763Y-114444000D01*
X145440768Y-114444002D01*
X145595418Y-114474764D01*
X145595421Y-114474765D01*
X145595423Y-114474765D01*
X145753109Y-114474765D01*
X145753110Y-114474764D01*
X145907762Y-114444002D01*
X146053444Y-114383659D01*
X146184554Y-114296054D01*
X146296054Y-114184554D01*
X146383659Y-114053444D01*
X146444002Y-113907762D01*
X146474765Y-113753107D01*
X146474765Y-113595423D01*
X146474765Y-113595420D01*
X146474764Y-113595418D01*
X146451618Y-113479057D01*
X146444002Y-113440768D01*
X146444000Y-113440763D01*
X146383662Y-113295092D01*
X146383655Y-113295079D01*
X146296054Y-113163976D01*
X146296051Y-113163972D01*
X146184557Y-113052478D01*
X146184553Y-113052475D01*
X146055609Y-112966316D01*
X146010804Y-112912703D01*
X146000500Y-112863214D01*
X146000500Y-107667847D01*
X146020185Y-107600808D01*
X146072989Y-107555053D01*
X146100309Y-107546230D01*
X146116291Y-107543050D01*
X146233497Y-107519737D01*
X146352550Y-107470423D01*
X146422017Y-107462955D01*
X146447450Y-107470422D01*
X146566506Y-107519737D01*
X146721156Y-107550499D01*
X146721159Y-107550500D01*
X146721161Y-107550500D01*
X146878847Y-107550500D01*
X146878848Y-107550499D01*
X147033500Y-107519737D01*
X147179182Y-107459394D01*
X147310292Y-107371789D01*
X147421792Y-107260289D01*
X147509397Y-107129179D01*
X147569740Y-106983497D01*
X147600503Y-106828842D01*
X147600503Y-106671158D01*
X147600503Y-106671155D01*
X147600502Y-106671153D01*
X147569741Y-106516510D01*
X147569740Y-106516503D01*
X147569738Y-106516498D01*
X147509400Y-106370827D01*
X147509393Y-106370814D01*
X147421401Y-106239125D01*
X147400523Y-106172447D01*
X147400503Y-106170234D01*
X147400503Y-99889063D01*
X147400504Y-99889050D01*
X147400504Y-99720947D01*
X147400504Y-99720946D01*
X147359580Y-99568219D01*
X147359576Y-99568212D01*
X147280527Y-99431293D01*
X147280521Y-99431285D01*
X145470050Y-97620814D01*
X143487589Y-95638354D01*
X143487588Y-95638352D01*
X143368717Y-95519481D01*
X143368716Y-95519480D01*
X143281904Y-95469360D01*
X143281904Y-95469359D01*
X143281900Y-95469358D01*
X143231785Y-95440423D01*
X143079057Y-95399499D01*
X143079054Y-95399499D01*
X142979764Y-95399499D01*
X142912725Y-95379814D01*
X142910873Y-95378601D01*
X142779185Y-95290609D01*
X142779172Y-95290602D01*
X142633501Y-95230264D01*
X142633489Y-95230261D01*
X142478845Y-95199500D01*
X142478842Y-95199500D01*
X142321158Y-95199500D01*
X142321155Y-95199500D01*
X142166510Y-95230261D01*
X142166498Y-95230264D01*
X142020827Y-95290602D01*
X142020814Y-95290609D01*
X141889711Y-95378210D01*
X141889707Y-95378213D01*
X141778213Y-95489707D01*
X141778210Y-95489711D01*
X141690609Y-95620814D01*
X141690602Y-95620827D01*
X141630264Y-95766498D01*
X141630261Y-95766510D01*
X141599500Y-95921153D01*
X141599500Y-96078846D01*
X141630261Y-96233489D01*
X141630264Y-96233501D01*
X141690602Y-96379172D01*
X141690609Y-96379185D01*
X141778210Y-96510288D01*
X141778213Y-96510292D01*
X141889707Y-96621786D01*
X141889711Y-96621789D01*
X142020814Y-96709390D01*
X142020827Y-96709397D01*
X142130796Y-96754947D01*
X142185200Y-96798787D01*
X142207265Y-96865081D01*
X142207281Y-96873458D01*
X142206955Y-96883676D01*
X142199500Y-96921158D01*
X142199500Y-97078842D01*
X142200564Y-97084194D01*
X142200176Y-97096394D01*
X142191687Y-97122228D01*
X142186618Y-97148946D01*
X142180941Y-97154934D01*
X142178366Y-97162772D01*
X142157260Y-97179914D01*
X142138549Y-97199652D01*
X142130535Y-97201620D01*
X142124131Y-97206822D01*
X142097106Y-97209832D01*
X142070696Y-97216320D01*
X142055447Y-97214472D01*
X142054691Y-97214557D01*
X142054221Y-97214324D01*
X142052048Y-97214061D01*
X141978845Y-97199500D01*
X141978842Y-97199500D01*
X141821158Y-97199500D01*
X141821155Y-97199500D01*
X141666510Y-97230261D01*
X141666498Y-97230264D01*
X141520827Y-97290602D01*
X141520814Y-97290609D01*
X141389711Y-97378210D01*
X141389707Y-97378213D01*
X141278213Y-97489707D01*
X141278210Y-97489711D01*
X141190609Y-97620814D01*
X141190602Y-97620827D01*
X141130264Y-97766498D01*
X141130261Y-97766510D01*
X141099500Y-97921153D01*
X141099500Y-98078846D01*
X141130261Y-98233489D01*
X141130264Y-98233501D01*
X141190602Y-98379172D01*
X141190609Y-98379185D01*
X141278210Y-98510288D01*
X141278213Y-98510292D01*
X141389707Y-98621786D01*
X141389711Y-98621789D01*
X141520814Y-98709390D01*
X141520823Y-98709395D01*
X141639255Y-98758451D01*
X141639722Y-98758827D01*
X141640317Y-98758897D01*
X141666862Y-98780698D01*
X141693658Y-98802292D01*
X141694002Y-98802988D01*
X141694311Y-98803242D01*
X141695326Y-98805664D01*
X141709815Y-98834948D01*
X141712021Y-98841790D01*
X141730263Y-98933494D01*
X141781488Y-99057164D01*
X141783027Y-99061934D01*
X141783822Y-99092052D01*
X141787044Y-99122015D01*
X141784814Y-99129606D01*
X141784872Y-99131779D01*
X141783523Y-99134005D01*
X141779575Y-99147450D01*
X141730264Y-99266498D01*
X141730261Y-99266510D01*
X141699500Y-99421153D01*
X141699500Y-99578846D01*
X141730261Y-99733489D01*
X141730264Y-99733501D01*
X141790602Y-99879172D01*
X141790609Y-99879185D01*
X141878210Y-100010288D01*
X141878213Y-100010292D01*
X141989707Y-100121786D01*
X141989711Y-100121789D01*
X142120814Y-100209390D01*
X142120818Y-100209392D01*
X142120821Y-100209394D01*
X142146272Y-100219936D01*
X142200675Y-100263776D01*
X142222740Y-100330070D01*
X142205461Y-100397769D01*
X142201923Y-100403386D01*
X142190609Y-100420318D01*
X142190604Y-100420327D01*
X142130266Y-100565998D01*
X142130263Y-100566010D01*
X142099502Y-100720653D01*
X142099502Y-100878346D01*
X142130263Y-101032989D01*
X142130266Y-101033001D01*
X142190604Y-101178672D01*
X142190611Y-101178685D01*
X142278212Y-101309788D01*
X142278215Y-101309792D01*
X142389709Y-101421286D01*
X142389713Y-101421289D01*
X142520816Y-101508890D01*
X142520829Y-101508897D01*
X142666500Y-101569235D01*
X142666505Y-101569237D01*
X142730432Y-101581953D01*
X142817533Y-101599279D01*
X142879444Y-101631664D01*
X142914018Y-101692380D01*
X142910279Y-101762149D01*
X142896444Y-101789786D01*
X142822391Y-101900614D01*
X142822381Y-101900632D01*
X142762043Y-102046303D01*
X142762040Y-102046315D01*
X142731279Y-102200958D01*
X142731279Y-102358651D01*
X142762040Y-102513294D01*
X142762043Y-102513306D01*
X142822381Y-102658977D01*
X142822388Y-102658990D01*
X142909989Y-102790093D01*
X142909992Y-102790097D01*
X143021484Y-102901589D01*
X143021489Y-102901593D01*
X143021490Y-102901594D01*
X143044386Y-102916892D01*
X143089192Y-102970503D01*
X143099497Y-103019995D01*
X143099497Y-106170234D01*
X143079812Y-106237273D01*
X143078599Y-106239125D01*
X142990606Y-106370814D01*
X142990599Y-106370827D01*
X142930261Y-106516498D01*
X142930258Y-106516510D01*
X142899497Y-106671153D01*
X142899497Y-106828846D01*
X142930258Y-106983489D01*
X142930261Y-106983501D01*
X142990599Y-107129172D01*
X142990606Y-107129185D01*
X143078207Y-107260288D01*
X143078210Y-107260292D01*
X143189704Y-107371786D01*
X143189708Y-107371789D01*
X143320811Y-107459390D01*
X143320824Y-107459397D01*
X143466495Y-107519735D01*
X143466500Y-107519737D01*
X143621150Y-107550499D01*
X143621153Y-107550500D01*
X143621155Y-107550500D01*
X143778841Y-107550500D01*
X143778842Y-107550499D01*
X143933494Y-107519737D01*
X144052547Y-107470423D01*
X144122014Y-107462955D01*
X144147447Y-107470422D01*
X144266503Y-107519737D01*
X144421153Y-107550499D01*
X144421156Y-107550500D01*
X144421158Y-107550500D01*
X144578843Y-107550500D01*
X144594564Y-107547372D01*
X144651309Y-107536085D01*
X144720899Y-107542312D01*
X144776077Y-107585174D01*
X144799322Y-107651063D01*
X144799500Y-107657702D01*
X144799500Y-108700500D01*
X144779815Y-108767539D01*
X144727011Y-108813294D01*
X144675500Y-108824500D01*
X143277129Y-108824500D01*
X143277123Y-108824501D01*
X143217516Y-108830908D01*
X143082671Y-108881202D01*
X143082664Y-108881206D01*
X142967455Y-108967452D01*
X142903758Y-109052539D01*
X142847823Y-109094410D01*
X142778132Y-109099393D01*
X142731607Y-109078545D01*
X142616099Y-108994624D01*
X142616098Y-108994623D01*
X142616096Y-108994622D01*
X142562772Y-108967452D01*
X142451235Y-108910620D01*
X142451232Y-108910619D01*
X142275265Y-108853445D01*
X142132972Y-108830908D01*
X142092514Y-108824500D01*
X141907486Y-108824500D01*
X141867028Y-108830908D01*
X141724734Y-108853445D01*
X141548767Y-108910619D01*
X141548764Y-108910620D01*
X141383903Y-108994622D01*
X141304188Y-109052539D01*
X141234213Y-109103379D01*
X141234211Y-109103381D01*
X141234210Y-109103381D01*
X141103381Y-109234210D01*
X141100314Y-109238432D01*
X141044981Y-109281094D01*
X140975367Y-109287069D01*
X140913574Y-109254459D01*
X140899686Y-109238432D01*
X140896621Y-109234213D01*
X140765787Y-109103379D01*
X140616096Y-108994622D01*
X140451235Y-108910620D01*
X140451232Y-108910619D01*
X140275265Y-108853445D01*
X140132972Y-108830908D01*
X140092514Y-108824500D01*
X139907486Y-108824500D01*
X139867028Y-108830908D01*
X139724734Y-108853445D01*
X139548767Y-108910619D01*
X139548764Y-108910620D01*
X139383903Y-108994622D01*
X139304188Y-109052539D01*
X139234213Y-109103379D01*
X139234211Y-109103381D01*
X139234210Y-109103381D01*
X139103381Y-109234210D01*
X139100314Y-109238432D01*
X139044981Y-109281094D01*
X138975367Y-109287069D01*
X138913574Y-109254459D01*
X138899686Y-109238432D01*
X138896621Y-109234213D01*
X138765787Y-109103379D01*
X138616096Y-108994622D01*
X138451235Y-108910620D01*
X138451232Y-108910619D01*
X138275265Y-108853445D01*
X138132972Y-108830908D01*
X138092514Y-108824500D01*
X137907486Y-108824500D01*
X137867028Y-108830908D01*
X137724734Y-108853445D01*
X137548767Y-108910619D01*
X137548764Y-108910620D01*
X137383903Y-108994622D01*
X137304188Y-109052539D01*
X137234213Y-109103379D01*
X137234211Y-109103381D01*
X137234210Y-109103381D01*
X137103381Y-109234210D01*
X137100314Y-109238432D01*
X137044981Y-109281094D01*
X136975367Y-109287069D01*
X136913574Y-109254459D01*
X136899686Y-109238432D01*
X136896621Y-109234213D01*
X136765787Y-109103379D01*
X136616096Y-108994622D01*
X136451235Y-108910620D01*
X136451232Y-108910619D01*
X136275265Y-108853445D01*
X136132972Y-108830908D01*
X136092514Y-108824500D01*
X135907486Y-108824500D01*
X135867028Y-108830908D01*
X135724734Y-108853445D01*
X135548767Y-108910619D01*
X135548764Y-108910620D01*
X135383903Y-108994622D01*
X135304188Y-109052539D01*
X135234213Y-109103379D01*
X135234211Y-109103381D01*
X135234210Y-109103381D01*
X135103381Y-109234210D01*
X135103381Y-109234211D01*
X135103379Y-109234213D01*
X135069318Y-109281094D01*
X134994622Y-109383903D01*
X134910620Y-109548764D01*
X134910619Y-109548767D01*
X134853445Y-109724734D01*
X134824500Y-109907486D01*
X125500500Y-109907486D01*
X125500500Y-99205609D01*
X128091728Y-99205609D01*
X128091728Y-99363302D01*
X128122489Y-99517945D01*
X128122492Y-99517957D01*
X128182830Y-99663628D01*
X128182837Y-99663641D01*
X128270438Y-99794744D01*
X128270441Y-99794748D01*
X128381935Y-99906242D01*
X128381939Y-99906245D01*
X128513042Y-99993846D01*
X128513055Y-99993853D01*
X128645561Y-100048738D01*
X128658731Y-100054193D01*
X128813381Y-100084955D01*
X128813384Y-100084956D01*
X128813386Y-100084956D01*
X128971072Y-100084956D01*
X128971073Y-100084955D01*
X129125725Y-100054193D01*
X129271407Y-99993850D01*
X129402517Y-99906245D01*
X129514017Y-99794745D01*
X129601622Y-99663635D01*
X129661965Y-99517953D01*
X129681341Y-99420541D01*
X129692866Y-99362606D01*
X129725251Y-99300695D01*
X129726750Y-99299168D01*
X130147346Y-98878571D01*
X130147351Y-98878568D01*
X130157554Y-98868364D01*
X130157556Y-98868364D01*
X130269360Y-98756560D01*
X130332045Y-98647986D01*
X130348417Y-98619629D01*
X130389341Y-98466901D01*
X130389341Y-98308787D01*
X130389341Y-98301192D01*
X130389340Y-98301174D01*
X130389340Y-96241468D01*
X130409025Y-96174429D01*
X130461829Y-96128674D01*
X130530987Y-96118730D01*
X130594543Y-96147755D01*
X130601021Y-96153787D01*
X131000874Y-96553640D01*
X131034359Y-96614963D01*
X131037193Y-96641321D01*
X131037193Y-100027591D01*
X131017508Y-100094630D01*
X131016295Y-100096482D01*
X130928302Y-100228171D01*
X130928295Y-100228184D01*
X130867957Y-100373855D01*
X130867954Y-100373867D01*
X130837193Y-100528510D01*
X130837193Y-100686203D01*
X130867954Y-100840846D01*
X130867957Y-100840858D01*
X130928295Y-100986529D01*
X130928302Y-100986542D01*
X131015903Y-101117645D01*
X131015906Y-101117649D01*
X131127400Y-101229143D01*
X131127404Y-101229146D01*
X131258507Y-101316747D01*
X131258520Y-101316754D01*
X131404191Y-101377092D01*
X131404196Y-101377094D01*
X131558846Y-101407856D01*
X131558849Y-101407857D01*
X131558851Y-101407857D01*
X131716537Y-101407857D01*
X131716538Y-101407856D01*
X131871190Y-101377094D01*
X131925050Y-101354784D01*
X131994516Y-101347316D01*
X132056995Y-101378590D01*
X132092648Y-101438679D01*
X132096500Y-101469346D01*
X132096500Y-102662273D01*
X132096499Y-102662291D01*
X132096499Y-102827997D01*
X132096498Y-102827997D01*
X132137423Y-102980728D01*
X132151596Y-103005276D01*
X132151595Y-103005276D01*
X132151596Y-103005277D01*
X132216475Y-103117652D01*
X132216481Y-103117660D01*
X132335349Y-103236528D01*
X132335355Y-103236533D01*
X132571533Y-103472711D01*
X132571543Y-103472722D01*
X132575873Y-103477052D01*
X132575874Y-103477053D01*
X132687678Y-103588857D01*
X132739239Y-103618625D01*
X132774489Y-103638976D01*
X132774491Y-103638978D01*
X132812545Y-103660948D01*
X132824609Y-103667914D01*
X132977337Y-103708838D01*
X132977340Y-103708838D01*
X133143047Y-103708838D01*
X133143063Y-103708837D01*
X133237780Y-103708837D01*
X133304819Y-103728522D01*
X133306671Y-103729735D01*
X133438360Y-103817727D01*
X133438373Y-103817734D01*
X133584044Y-103878072D01*
X133584049Y-103878074D01*
X133738699Y-103908836D01*
X133738702Y-103908837D01*
X133738704Y-103908837D01*
X133896390Y-103908837D01*
X133896391Y-103908836D01*
X134051043Y-103878074D01*
X134196725Y-103817731D01*
X134327835Y-103730126D01*
X134439335Y-103618626D01*
X134526940Y-103487516D01*
X134581884Y-103354866D01*
X134625723Y-103300466D01*
X134692017Y-103278400D01*
X134720636Y-103280704D01*
X134820155Y-103300500D01*
X134820158Y-103300500D01*
X134977844Y-103300500D01*
X134977845Y-103300499D01*
X135132497Y-103269737D01*
X135278179Y-103209394D01*
X135409289Y-103121789D01*
X135520789Y-103010289D01*
X135608394Y-102879179D01*
X135668737Y-102733497D01*
X135699500Y-102578842D01*
X135699500Y-102421158D01*
X135699500Y-102421155D01*
X135699499Y-102421153D01*
X135668737Y-102266503D01*
X135641588Y-102200958D01*
X135608397Y-102120827D01*
X135608390Y-102120814D01*
X135520789Y-101989711D01*
X135520786Y-101989707D01*
X135409292Y-101878213D01*
X135409288Y-101878210D01*
X135278185Y-101790609D01*
X135278172Y-101790602D01*
X135132501Y-101730264D01*
X135132489Y-101730261D01*
X134977845Y-101699500D01*
X134977842Y-101699500D01*
X134820158Y-101699500D01*
X134820155Y-101699500D01*
X134665510Y-101730261D01*
X134665498Y-101730264D01*
X134519827Y-101790602D01*
X134519814Y-101790609D01*
X134388125Y-101878602D01*
X134321447Y-101899480D01*
X134319234Y-101899500D01*
X133877766Y-101899500D01*
X133810727Y-101879815D01*
X133808875Y-101878602D01*
X133677185Y-101790609D01*
X133677172Y-101790602D01*
X133531501Y-101730264D01*
X133531491Y-101730261D01*
X133397308Y-101703570D01*
X133335397Y-101671185D01*
X133300823Y-101610469D01*
X133297500Y-101581953D01*
X133297500Y-99316799D01*
X133317185Y-99249760D01*
X133333819Y-99229118D01*
X135184727Y-97378210D01*
X137080520Y-95482418D01*
X137159577Y-95345486D01*
X137200501Y-95192759D01*
X137200501Y-95034644D01*
X137200501Y-95027049D01*
X137200500Y-95027031D01*
X137200500Y-94688057D01*
X137200501Y-94688044D01*
X137200501Y-94519941D01*
X137164714Y-94386384D01*
X137159577Y-94367213D01*
X137115350Y-94290609D01*
X137080524Y-94230287D01*
X137080518Y-94230279D01*
X136147099Y-93296860D01*
X150075207Y-93296860D01*
X150075207Y-93454553D01*
X150105968Y-93609196D01*
X150105971Y-93609208D01*
X150166309Y-93754879D01*
X150166316Y-93754892D01*
X150253917Y-93885995D01*
X150253920Y-93885999D01*
X150365414Y-93997493D01*
X150365418Y-93997496D01*
X150496521Y-94085097D01*
X150496534Y-94085104D01*
X150604811Y-94129953D01*
X150642210Y-94145444D01*
X150796860Y-94176206D01*
X150796863Y-94176207D01*
X150796865Y-94176207D01*
X150954551Y-94176207D01*
X150954552Y-94176206D01*
X151109204Y-94145444D01*
X151254886Y-94085101D01*
X151289079Y-94062254D01*
X151386582Y-93997105D01*
X151453260Y-93976227D01*
X151455473Y-93976207D01*
X152292989Y-93976207D01*
X152360028Y-93995892D01*
X152380943Y-94014513D01*
X152381689Y-94013768D01*
X152497493Y-94129572D01*
X152497497Y-94129575D01*
X152628600Y-94217176D01*
X152628613Y-94217183D01*
X152774284Y-94277521D01*
X152774289Y-94277523D01*
X152928939Y-94308285D01*
X152928942Y-94308286D01*
X152928944Y-94308286D01*
X153086630Y-94308286D01*
X153086631Y-94308285D01*
X153241283Y-94277523D01*
X153386965Y-94217180D01*
X153518075Y-94129575D01*
X153629575Y-94018075D01*
X153717180Y-93886965D01*
X153777523Y-93741283D01*
X153808286Y-93586628D01*
X153808286Y-93428944D01*
X153808286Y-93428941D01*
X153808285Y-93428939D01*
X153777523Y-93274289D01*
X153777521Y-93274284D01*
X153717183Y-93128613D01*
X153717176Y-93128600D01*
X153629575Y-92997497D01*
X153629572Y-92997493D01*
X153518078Y-92885999D01*
X153518074Y-92885996D01*
X153386971Y-92798395D01*
X153386958Y-92798388D01*
X153241287Y-92738050D01*
X153241275Y-92738047D01*
X153086631Y-92707286D01*
X153086628Y-92707286D01*
X152928944Y-92707286D01*
X152928941Y-92707286D01*
X152774296Y-92738047D01*
X152774288Y-92738049D01*
X152741998Y-92751424D01*
X152707367Y-92765768D01*
X152659917Y-92775207D01*
X151455473Y-92775207D01*
X151388434Y-92755522D01*
X151386582Y-92754309D01*
X151254892Y-92666316D01*
X151254879Y-92666309D01*
X151109208Y-92605971D01*
X151109196Y-92605968D01*
X150954552Y-92575207D01*
X150954549Y-92575207D01*
X150796865Y-92575207D01*
X150796862Y-92575207D01*
X150642217Y-92605968D01*
X150642205Y-92605971D01*
X150496534Y-92666309D01*
X150496521Y-92666316D01*
X150365418Y-92753917D01*
X150365414Y-92753920D01*
X150253920Y-92865414D01*
X150253917Y-92865418D01*
X150166316Y-92996521D01*
X150166309Y-92996534D01*
X150105971Y-93142205D01*
X150105968Y-93142217D01*
X150075207Y-93296860D01*
X136147099Y-93296860D01*
X135834573Y-92984334D01*
X135801088Y-92923011D01*
X135800637Y-92920844D01*
X135793706Y-92885999D01*
X135769737Y-92765500D01*
X135765102Y-92754309D01*
X135709397Y-92619824D01*
X135709390Y-92619811D01*
X135621789Y-92488708D01*
X135621786Y-92488704D01*
X135510292Y-92377210D01*
X135510288Y-92377207D01*
X135379185Y-92289606D01*
X135379172Y-92289599D01*
X135233501Y-92229261D01*
X135233489Y-92229258D01*
X135078845Y-92198497D01*
X135078842Y-92198497D01*
X134921158Y-92198497D01*
X134921155Y-92198497D01*
X134766510Y-92229258D01*
X134766498Y-92229261D01*
X134620827Y-92289599D01*
X134620814Y-92289606D01*
X134489711Y-92377207D01*
X134489707Y-92377210D01*
X134378213Y-92488704D01*
X134378210Y-92488708D01*
X134323112Y-92571168D01*
X134269499Y-92615973D01*
X134200174Y-92624680D01*
X134195819Y-92623894D01*
X134078344Y-92600527D01*
X134078340Y-92600527D01*
X133920656Y-92600527D01*
X133920653Y-92600527D01*
X133766008Y-92631288D01*
X133765996Y-92631291D01*
X133620325Y-92691629D01*
X133620312Y-92691636D01*
X133488623Y-92779629D01*
X133421945Y-92800507D01*
X133419732Y-92800527D01*
X131311298Y-92800527D01*
X131153183Y-92800527D01*
X131000456Y-92841450D01*
X130973028Y-92857286D01*
X130958950Y-92865414D01*
X130863526Y-92920506D01*
X130863523Y-92920508D01*
X129308321Y-94475710D01*
X129308315Y-94475718D01*
X129274787Y-94533792D01*
X129274787Y-94533794D01*
X129229263Y-94612642D01*
X129229263Y-94612643D01*
X129188339Y-94765371D01*
X129188339Y-94765373D01*
X129188339Y-94933474D01*
X129188340Y-94933487D01*
X129188340Y-98087747D01*
X129168655Y-98154786D01*
X129152021Y-98175428D01*
X128877567Y-98449881D01*
X128816244Y-98483366D01*
X128814078Y-98483817D01*
X128658736Y-98514717D01*
X128658726Y-98514720D01*
X128513055Y-98575058D01*
X128513042Y-98575065D01*
X128381939Y-98662666D01*
X128381935Y-98662669D01*
X128270441Y-98774163D01*
X128270438Y-98774167D01*
X128182837Y-98905270D01*
X128182830Y-98905283D01*
X128122492Y-99050954D01*
X128122489Y-99050966D01*
X128091728Y-99205609D01*
X125500500Y-99205609D01*
X125500500Y-77102135D01*
X151649500Y-77102135D01*
X151649500Y-78897870D01*
X151649501Y-78897876D01*
X151655908Y-78957483D01*
X151706202Y-79092328D01*
X151706206Y-79092335D01*
X151792452Y-79207544D01*
X151792455Y-79207547D01*
X151907664Y-79293793D01*
X151907671Y-79293797D01*
X152039082Y-79342810D01*
X152095016Y-79384681D01*
X152119433Y-79450145D01*
X152104582Y-79518418D01*
X152083431Y-79546673D01*
X151969889Y-79660215D01*
X151844951Y-79832179D01*
X151748444Y-80021585D01*
X151682753Y-80223760D01*
X151649500Y-80433713D01*
X151649500Y-80646286D01*
X151682753Y-80856239D01*
X151748444Y-81058414D01*
X151844951Y-81247820D01*
X151969890Y-81419786D01*
X152120213Y-81570109D01*
X152292179Y-81695048D01*
X152292181Y-81695049D01*
X152292184Y-81695051D01*
X152301493Y-81699794D01*
X152352290Y-81747766D01*
X152369087Y-81815587D01*
X152346552Y-81881722D01*
X152301505Y-81920760D01*
X152292446Y-81925376D01*
X152292440Y-81925380D01*
X152238282Y-81964727D01*
X152238282Y-81964728D01*
X152870591Y-82597037D01*
X152807007Y-82614075D01*
X152692993Y-82679901D01*
X152599901Y-82772993D01*
X152534075Y-82887007D01*
X152517037Y-82950591D01*
X151884728Y-82318282D01*
X151884727Y-82318282D01*
X151845380Y-82372439D01*
X151748904Y-82561782D01*
X151683242Y-82763869D01*
X151683242Y-82763872D01*
X151650000Y-82973753D01*
X151650000Y-83186246D01*
X151683242Y-83396127D01*
X151683242Y-83396130D01*
X151748904Y-83598217D01*
X151845375Y-83787550D01*
X151884728Y-83841716D01*
X152517037Y-83209408D01*
X152534075Y-83272993D01*
X152599901Y-83387007D01*
X152692993Y-83480099D01*
X152807007Y-83545925D01*
X152870590Y-83562962D01*
X152238282Y-84195269D01*
X152238282Y-84195270D01*
X152292452Y-84234626D01*
X152292451Y-84234626D01*
X152301495Y-84239234D01*
X152352292Y-84287208D01*
X152369087Y-84355029D01*
X152346550Y-84421164D01*
X152301499Y-84460202D01*
X152292182Y-84464949D01*
X152120213Y-84589890D01*
X151969890Y-84740213D01*
X151844951Y-84912179D01*
X151748444Y-85101585D01*
X151682753Y-85303760D01*
X151649500Y-85513713D01*
X151649500Y-85726286D01*
X151682753Y-85936239D01*
X151748444Y-86138414D01*
X151844951Y-86327820D01*
X151969890Y-86499786D01*
X152120213Y-86650109D01*
X152292182Y-86775050D01*
X152300946Y-86779516D01*
X152351742Y-86827491D01*
X152368536Y-86895312D01*
X152345998Y-86961447D01*
X152300946Y-87000484D01*
X152292182Y-87004949D01*
X152120213Y-87129890D01*
X151969890Y-87280213D01*
X151844951Y-87452179D01*
X151748444Y-87641585D01*
X151682753Y-87843760D01*
X151649500Y-88053713D01*
X151649500Y-88266286D01*
X151682753Y-88476239D01*
X151748444Y-88678414D01*
X151844951Y-88867820D01*
X151969890Y-89039786D01*
X152120213Y-89190109D01*
X152292179Y-89315048D01*
X152292181Y-89315049D01*
X152292184Y-89315051D01*
X152481588Y-89411557D01*
X152683757Y-89477246D01*
X152893713Y-89510500D01*
X152893714Y-89510500D01*
X153106286Y-89510500D01*
X153106287Y-89510500D01*
X153316243Y-89477246D01*
X153518412Y-89411557D01*
X153707816Y-89315051D01*
X153729789Y-89299086D01*
X153879786Y-89190109D01*
X153879788Y-89190106D01*
X153879792Y-89190104D01*
X154030104Y-89039792D01*
X154030106Y-89039788D01*
X154030109Y-89039786D01*
X154155048Y-88867820D01*
X154155047Y-88867820D01*
X154155051Y-88867816D01*
X154251557Y-88678412D01*
X154317246Y-88476243D01*
X154350500Y-88266287D01*
X154350500Y-88053713D01*
X154317246Y-87843757D01*
X154251557Y-87641588D01*
X154155051Y-87452184D01*
X154155049Y-87452181D01*
X154155048Y-87452179D01*
X154030109Y-87280213D01*
X153879786Y-87129890D01*
X153707820Y-87004951D01*
X153707115Y-87004591D01*
X153699054Y-87000485D01*
X153648259Y-86952512D01*
X153631463Y-86884692D01*
X153653999Y-86818556D01*
X153699054Y-86779515D01*
X153707816Y-86775051D01*
X153729789Y-86759086D01*
X153879786Y-86650109D01*
X153879788Y-86650106D01*
X153879792Y-86650104D01*
X154030104Y-86499792D01*
X154030106Y-86499788D01*
X154030109Y-86499786D01*
X154155048Y-86327820D01*
X154155047Y-86327820D01*
X154155051Y-86327816D01*
X154251557Y-86138412D01*
X154317246Y-85936243D01*
X154350500Y-85726287D01*
X154350500Y-85513713D01*
X154317246Y-85303757D01*
X154251557Y-85101588D01*
X154155051Y-84912184D01*
X154155049Y-84912181D01*
X154155048Y-84912179D01*
X154030109Y-84740213D01*
X153879786Y-84589890D01*
X153707817Y-84464949D01*
X153698504Y-84460204D01*
X153647707Y-84412230D01*
X153630912Y-84344409D01*
X153653449Y-84278274D01*
X153698507Y-84239232D01*
X153707555Y-84234622D01*
X153761716Y-84195270D01*
X153761717Y-84195270D01*
X153129408Y-83562962D01*
X153192993Y-83545925D01*
X153307007Y-83480099D01*
X153400099Y-83387007D01*
X153465925Y-83272993D01*
X153482962Y-83209408D01*
X154115270Y-83841717D01*
X154115270Y-83841716D01*
X154154622Y-83787554D01*
X154251095Y-83598217D01*
X154316757Y-83396130D01*
X154316757Y-83396127D01*
X154350000Y-83186246D01*
X154350000Y-82973753D01*
X154316757Y-82763872D01*
X154316757Y-82763869D01*
X154251095Y-82561782D01*
X154154624Y-82372449D01*
X154115270Y-82318282D01*
X154115269Y-82318282D01*
X153482962Y-82950590D01*
X153465925Y-82887007D01*
X153400099Y-82772993D01*
X153307007Y-82679901D01*
X153192993Y-82614075D01*
X153129409Y-82597037D01*
X153761716Y-81964728D01*
X153707547Y-81925373D01*
X153707547Y-81925372D01*
X153698500Y-81920763D01*
X153647706Y-81872788D01*
X153630912Y-81804966D01*
X153653451Y-81738832D01*
X153698508Y-81699793D01*
X153707816Y-81695051D01*
X153787007Y-81637515D01*
X153879786Y-81570109D01*
X153879788Y-81570106D01*
X153879792Y-81570104D01*
X154030104Y-81419792D01*
X154030106Y-81419788D01*
X154030109Y-81419786D01*
X154155048Y-81247820D01*
X154155047Y-81247820D01*
X154155051Y-81247816D01*
X154251557Y-81058412D01*
X154317246Y-80856243D01*
X154350500Y-80646287D01*
X154350500Y-80433713D01*
X154317246Y-80223757D01*
X154251557Y-80021588D01*
X154155051Y-79832184D01*
X154155049Y-79832181D01*
X154155048Y-79832179D01*
X154030109Y-79660213D01*
X153916569Y-79546673D01*
X153883084Y-79485350D01*
X153888068Y-79415658D01*
X153929940Y-79359725D01*
X153960915Y-79342810D01*
X154092331Y-79293796D01*
X154207546Y-79207546D01*
X154293796Y-79092331D01*
X154344091Y-78957483D01*
X154350500Y-78897873D01*
X154350499Y-77102128D01*
X154344091Y-77042517D01*
X154293796Y-76907669D01*
X154293795Y-76907668D01*
X154293793Y-76907664D01*
X154207547Y-76792455D01*
X154207544Y-76792452D01*
X154092335Y-76706206D01*
X154092328Y-76706202D01*
X153957482Y-76655908D01*
X153957483Y-76655908D01*
X153897883Y-76649501D01*
X153897881Y-76649500D01*
X153897873Y-76649500D01*
X153897864Y-76649500D01*
X152102129Y-76649500D01*
X152102123Y-76649501D01*
X152042516Y-76655908D01*
X151907671Y-76706202D01*
X151907664Y-76706206D01*
X151792455Y-76792452D01*
X151792452Y-76792455D01*
X151706206Y-76907664D01*
X151706202Y-76907671D01*
X151655908Y-77042517D01*
X151649501Y-77102116D01*
X151649501Y-77102123D01*
X151649500Y-77102135D01*
X125500500Y-77102135D01*
X125500500Y-64421153D01*
X133199500Y-64421153D01*
X133199500Y-64578846D01*
X133230261Y-64733489D01*
X133230263Y-64733497D01*
X133240061Y-64757151D01*
X133249500Y-64804604D01*
X133249500Y-65573918D01*
X133249500Y-65573920D01*
X133249499Y-65573920D01*
X133278340Y-65718907D01*
X133278343Y-65718917D01*
X133334912Y-65855488D01*
X133334920Y-65855503D01*
X133365421Y-65901149D01*
X133365422Y-65901152D01*
X133365423Y-65901152D01*
X133417047Y-65978415D01*
X133417051Y-65978420D01*
X133417052Y-65978421D01*
X135253926Y-67815293D01*
X135280805Y-67855519D01*
X135290603Y-67879172D01*
X135290606Y-67879178D01*
X135290609Y-67879185D01*
X135378210Y-68010288D01*
X135378213Y-68010292D01*
X135489707Y-68121786D01*
X135489711Y-68121789D01*
X135620814Y-68209390D01*
X135620827Y-68209397D01*
X135766498Y-68269735D01*
X135766503Y-68269737D01*
X135865838Y-68289496D01*
X135921153Y-68300499D01*
X135921156Y-68300500D01*
X135921158Y-68300500D01*
X136078844Y-68300500D01*
X136078845Y-68300499D01*
X136233497Y-68269737D01*
X136379179Y-68209394D01*
X136510289Y-68121789D01*
X136621789Y-68010289D01*
X136705508Y-67884995D01*
X137498499Y-67884995D01*
X137527340Y-68029982D01*
X137527343Y-68029992D01*
X137583913Y-68166565D01*
X137583914Y-68166566D01*
X137583916Y-68166570D01*
X137590939Y-68177080D01*
X137590940Y-68177083D01*
X137666046Y-68289489D01*
X137666052Y-68289496D01*
X138210509Y-68833952D01*
X138210511Y-68833954D01*
X138239983Y-68853645D01*
X138284195Y-68883186D01*
X138333430Y-68916084D01*
X138333431Y-68916084D01*
X138333432Y-68916085D01*
X138333434Y-68916086D01*
X138470007Y-68972656D01*
X138470012Y-68972658D01*
X138470016Y-68972658D01*
X138470017Y-68972659D01*
X138615004Y-69001500D01*
X138615007Y-69001500D01*
X139383582Y-69001500D01*
X139481124Y-68982096D01*
X139528575Y-68972658D01*
X139665157Y-68916084D01*
X139714391Y-68883186D01*
X139714396Y-68883183D01*
X139738733Y-68866921D01*
X139788078Y-68833952D01*
X141595628Y-67026400D01*
X141635855Y-66999522D01*
X141659510Y-66989725D01*
X141790620Y-66902120D01*
X141902120Y-66790620D01*
X141989725Y-66659510D01*
X142050068Y-66513828D01*
X142080831Y-66359173D01*
X142080831Y-66201489D01*
X142080831Y-66201486D01*
X142080830Y-66201484D01*
X142050068Y-66046834D01*
X142008957Y-65947582D01*
X141989728Y-65901158D01*
X141989726Y-65901154D01*
X141989725Y-65901152D01*
X141914277Y-65788237D01*
X141893400Y-65721561D01*
X141911884Y-65654181D01*
X141929695Y-65631671D01*
X143582951Y-63978416D01*
X143665084Y-63855495D01*
X143721658Y-63718913D01*
X143750500Y-63573918D01*
X143750500Y-63426083D01*
X143750500Y-61475082D01*
X143750500Y-61475079D01*
X143721659Y-61330092D01*
X143721658Y-61330091D01*
X143721658Y-61330087D01*
X143695319Y-61266498D01*
X143665087Y-61193511D01*
X143665080Y-61193498D01*
X143582951Y-61070584D01*
X143582948Y-61070580D01*
X143478419Y-60966051D01*
X143478415Y-60966048D01*
X143355501Y-60883919D01*
X143355488Y-60883912D01*
X143218917Y-60827343D01*
X143218907Y-60827340D01*
X143073920Y-60798500D01*
X143073918Y-60798500D01*
X139422902Y-60798500D01*
X139375450Y-60789061D01*
X139233501Y-60730264D01*
X139233489Y-60730261D01*
X139078845Y-60699500D01*
X139078842Y-60699500D01*
X138921158Y-60699500D01*
X138921155Y-60699500D01*
X138766510Y-60730261D01*
X138766498Y-60730264D01*
X138620827Y-60790602D01*
X138620814Y-60790609D01*
X138489711Y-60878210D01*
X138489707Y-60878213D01*
X138378213Y-60989707D01*
X138378210Y-60989711D01*
X138290609Y-61120814D01*
X138290602Y-61120827D01*
X138230264Y-61266498D01*
X138230261Y-61266510D01*
X138199500Y-61421153D01*
X138199500Y-61578846D01*
X138230261Y-61733489D01*
X138230264Y-61733501D01*
X138290602Y-61879172D01*
X138290609Y-61879185D01*
X138378210Y-62010288D01*
X138378213Y-62010292D01*
X138489707Y-62121786D01*
X138489711Y-62121789D01*
X138620814Y-62209390D01*
X138620827Y-62209397D01*
X138766498Y-62269735D01*
X138766503Y-62269737D01*
X138916131Y-62299500D01*
X138921153Y-62300499D01*
X138921156Y-62300500D01*
X138921158Y-62300500D01*
X139078846Y-62300500D01*
X139082939Y-62300097D01*
X139095090Y-62299500D01*
X142125500Y-62299500D01*
X142192539Y-62319185D01*
X142238294Y-62371989D01*
X142249500Y-62423500D01*
X142249500Y-63137770D01*
X142240855Y-63167207D01*
X142234332Y-63197198D01*
X142230576Y-63202214D01*
X142229815Y-63204809D01*
X142213185Y-63225446D01*
X142172129Y-63266503D01*
X142142561Y-63296071D01*
X142081237Y-63329555D01*
X142011546Y-63324570D01*
X141955612Y-63282699D01*
X141940319Y-63255841D01*
X141884395Y-63120827D01*
X141884388Y-63120814D01*
X141796787Y-62989711D01*
X141796784Y-62989707D01*
X141685290Y-62878213D01*
X141685286Y-62878210D01*
X141554183Y-62790609D01*
X141554170Y-62790602D01*
X141408499Y-62730264D01*
X141408487Y-62730261D01*
X141253843Y-62699500D01*
X141253840Y-62699500D01*
X141096156Y-62699500D01*
X141096153Y-62699500D01*
X140941508Y-62730261D01*
X140941496Y-62730264D01*
X140795825Y-62790602D01*
X140795812Y-62790609D01*
X140664709Y-62878210D01*
X140664705Y-62878213D01*
X140553211Y-62989707D01*
X140553205Y-62989715D01*
X140465605Y-63120818D01*
X140465604Y-63120819D01*
X140455803Y-63144480D01*
X140428925Y-63184703D01*
X137666047Y-65947582D01*
X137666043Y-65947587D01*
X137645446Y-65978415D01*
X137645446Y-65978416D01*
X137583913Y-66070506D01*
X137527343Y-66207080D01*
X137527340Y-66207090D01*
X137498500Y-66352077D01*
X137498500Y-66352080D01*
X137498500Y-67884993D01*
X137498500Y-67884995D01*
X137498499Y-67884995D01*
X136705508Y-67884995D01*
X136709394Y-67879179D01*
X136769737Y-67733497D01*
X136800500Y-67578842D01*
X136800500Y-67421158D01*
X136800500Y-67421155D01*
X136800499Y-67421153D01*
X136769738Y-67266510D01*
X136769737Y-67266503D01*
X136769735Y-67266498D01*
X136709397Y-67120827D01*
X136709390Y-67120814D01*
X136621789Y-66989711D01*
X136621786Y-66989707D01*
X136510292Y-66878213D01*
X136510288Y-66878210D01*
X136379185Y-66790609D01*
X136379180Y-66790607D01*
X136379179Y-66790606D01*
X136355519Y-66780805D01*
X136315293Y-66753926D01*
X135995036Y-66433669D01*
X135539788Y-65978421D01*
X134786819Y-65225451D01*
X134753334Y-65164128D01*
X134750500Y-65137770D01*
X134750500Y-64804604D01*
X134759939Y-64757151D01*
X134769737Y-64733497D01*
X134800500Y-64578842D01*
X134800500Y-64421158D01*
X134800500Y-64421155D01*
X134800499Y-64421153D01*
X134769738Y-64266510D01*
X134769737Y-64266503D01*
X134769735Y-64266498D01*
X134709397Y-64120827D01*
X134709390Y-64120814D01*
X134621789Y-63989711D01*
X134621786Y-63989707D01*
X134510292Y-63878213D01*
X134510288Y-63878210D01*
X134379185Y-63790609D01*
X134379172Y-63790602D01*
X134233501Y-63730264D01*
X134233489Y-63730261D01*
X134078845Y-63699500D01*
X134078842Y-63699500D01*
X133921158Y-63699500D01*
X133921155Y-63699500D01*
X133766510Y-63730261D01*
X133766498Y-63730264D01*
X133620827Y-63790602D01*
X133620814Y-63790609D01*
X133489711Y-63878210D01*
X133489707Y-63878213D01*
X133378213Y-63989707D01*
X133378210Y-63989711D01*
X133290609Y-64120814D01*
X133290602Y-64120827D01*
X133230264Y-64266498D01*
X133230261Y-64266510D01*
X133199500Y-64421153D01*
X125500500Y-64421153D01*
X125500500Y-52003246D01*
X125500670Y-51996756D01*
X125503953Y-51934108D01*
X125516592Y-51692951D01*
X125517949Y-51680046D01*
X125554046Y-51452135D01*
X138499500Y-51452135D01*
X138499500Y-53547870D01*
X138499501Y-53547876D01*
X138505908Y-53607483D01*
X138556202Y-53742328D01*
X138556206Y-53742335D01*
X138642452Y-53857544D01*
X138642455Y-53857547D01*
X138757664Y-53943793D01*
X138757671Y-53943797D01*
X138892517Y-53994091D01*
X138892516Y-53994091D01*
X138899444Y-53994835D01*
X138952127Y-54000500D01*
X141047872Y-54000499D01*
X141107483Y-53994091D01*
X141242331Y-53943796D01*
X141357546Y-53857546D01*
X141443796Y-53742331D01*
X141494091Y-53607483D01*
X141500500Y-53547873D01*
X141500499Y-52378711D01*
X151149500Y-52378711D01*
X151149500Y-52621288D01*
X151181161Y-52861785D01*
X151243947Y-53096104D01*
X151336773Y-53320205D01*
X151336776Y-53320212D01*
X151458064Y-53530289D01*
X151458066Y-53530292D01*
X151458067Y-53530293D01*
X151605733Y-53722736D01*
X151605739Y-53722743D01*
X151777256Y-53894260D01*
X151777262Y-53894265D01*
X151969711Y-54041936D01*
X152179788Y-54163224D01*
X152403900Y-54256054D01*
X152638211Y-54318838D01*
X152818586Y-54342584D01*
X152878711Y-54350500D01*
X152878712Y-54350500D01*
X153121289Y-54350500D01*
X153169388Y-54344167D01*
X153361789Y-54318838D01*
X153596100Y-54256054D01*
X153820212Y-54163224D01*
X154030289Y-54041936D01*
X154222738Y-53894265D01*
X154394265Y-53722738D01*
X154541936Y-53530289D01*
X154663224Y-53320212D01*
X154756054Y-53096100D01*
X154818838Y-52861789D01*
X154850500Y-52621288D01*
X154850500Y-52378712D01*
X154818838Y-52138211D01*
X154756054Y-51903900D01*
X154663224Y-51679788D01*
X154541936Y-51469711D01*
X154394265Y-51277262D01*
X154394260Y-51277256D01*
X154222743Y-51105739D01*
X154222736Y-51105733D01*
X154030293Y-50958067D01*
X154030292Y-50958066D01*
X154030289Y-50958064D01*
X153820212Y-50836776D01*
X153820205Y-50836773D01*
X153596104Y-50743947D01*
X153361785Y-50681161D01*
X153121289Y-50649500D01*
X153121288Y-50649500D01*
X152878712Y-50649500D01*
X152878711Y-50649500D01*
X152638214Y-50681161D01*
X152403895Y-50743947D01*
X152179794Y-50836773D01*
X152179785Y-50836777D01*
X151969706Y-50958067D01*
X151777263Y-51105733D01*
X151777256Y-51105739D01*
X151605739Y-51277256D01*
X151605733Y-51277263D01*
X151458067Y-51469706D01*
X151336777Y-51679785D01*
X151336773Y-51679794D01*
X151243947Y-51903895D01*
X151181161Y-52138214D01*
X151149500Y-52378711D01*
X141500499Y-52378711D01*
X141500499Y-51452128D01*
X141494091Y-51392517D01*
X141490464Y-51382793D01*
X141443797Y-51257671D01*
X141443793Y-51257664D01*
X141357547Y-51142455D01*
X141357544Y-51142452D01*
X141242335Y-51056206D01*
X141242328Y-51056202D01*
X141107482Y-51005908D01*
X141107483Y-51005908D01*
X141047883Y-50999501D01*
X141047881Y-50999500D01*
X141047873Y-50999500D01*
X141047864Y-50999500D01*
X138952129Y-50999500D01*
X138952123Y-50999501D01*
X138892516Y-51005908D01*
X138757671Y-51056202D01*
X138757664Y-51056206D01*
X138642455Y-51142452D01*
X138642452Y-51142455D01*
X138556206Y-51257664D01*
X138556202Y-51257671D01*
X138505908Y-51392517D01*
X138500082Y-51446715D01*
X138499501Y-51452123D01*
X138499500Y-51452135D01*
X125554046Y-51452135D01*
X125557645Y-51429409D01*
X125565030Y-51382782D01*
X125567723Y-51370107D01*
X125645627Y-51079368D01*
X125649636Y-51067033D01*
X125653794Y-51056202D01*
X125757493Y-50786054D01*
X125762763Y-50774215D01*
X125899415Y-50506023D01*
X125905891Y-50494808D01*
X126069819Y-50242380D01*
X126077434Y-50231899D01*
X126266858Y-49997979D01*
X126275525Y-49988354D01*
X126488354Y-49775525D01*
X126497979Y-49766858D01*
X126731899Y-49577434D01*
X126742380Y-49569819D01*
X126994808Y-49405891D01*
X127006023Y-49399415D01*
X127274215Y-49262763D01*
X127286054Y-49257493D01*
X127567040Y-49149633D01*
X127579368Y-49145627D01*
X127870107Y-49067723D01*
X127882786Y-49065029D01*
X128180046Y-49017949D01*
X128192951Y-49016592D01*
X128496756Y-49000669D01*
X128503246Y-49000500D01*
X128565892Y-49000500D01*
X153434108Y-49000500D01*
X153496754Y-49000500D01*
X153503244Y-49000670D01*
G37*
%TD.AperFunction*%
%TD*%
M02*
