M48
; DRILL file {KiCad 9.0.7} date 2026-03-18T21:48:04+0100
; FORMAT={-:-/ absolute / metric / decimal}
; #@! TF.CreationDate,2026-03-18T21:48:04+01:00
; #@! TF.GenerationSoftware,Kicad,Pcbnew,9.0.7
; #@! TF.FileFunction,Plated,1,2,PTH
FMAT,2
METRIC
; #@! TA.AperFunction,Plated,PTH,ViaDrill
T1C0.300
; #@! TA.AperFunction,Plated,PTH,ComponentDrill
T2C0.800
; #@! TA.AperFunction,Plated,PTH,ComponentDrill
T3C1.000
; #@! TA.AperFunction,Plated,PTH,ComponentDrill
T4C1.500
%
G90
G05
T1
X128.75Y-97.5
X128.892Y-99.284
X129.25Y-93.5
X129.25Y-100.0
X130.0Y-66.5
X130.39Y-95.093
X131.5Y-95.0
X131.638Y-100.607
X133.298Y-102.5
X133.818Y-103.108
X133.999Y-93.401
X134.0Y-64.5
X134.439Y-96.163
X134.899Y-94.2
X134.899Y-95.0
X134.899Y-102.5
X135.0Y-92.999
X135.75Y-84.0
X136.0Y-67.5
X136.0Y-72.0
X138.25Y-81.5
X138.449Y-123.0
X139.0Y-61.5
X139.0Y-64.549
X139.0Y-67.5
X141.175Y-63.5
X141.28Y-66.28
X141.9Y-98.0
X142.4Y-96.0
X142.5Y-98.7
X142.5Y-99.5
X142.75Y-105.0
X142.9Y-100.799
X143.0Y-97.0
X143.532Y-102.28
X143.7Y-106.75
X144.25Y-81.5
X144.5Y-66.5
X144.5Y-67.5
X144.5Y-68.5
X144.5Y-69.5
X144.5Y-70.5
X144.5Y-106.75
X145.0Y-122.5
X145.0Y-123.5
X145.4Y-105.25
X145.5Y-66.5
X145.5Y-67.5
X145.5Y-68.5
X145.5Y-69.5
X145.5Y-70.5
X145.674Y-113.674
X146.0Y-106.75
X146.8Y-106.75
X148.25Y-87.5
X148.25Y-93.0
X149.25Y-95.0
X150.0Y-92.5
X150.876Y-93.376
X151.5Y-83.0
X153.008Y-93.508
T2
X136.0Y-110.0
X136.0Y-120.0
X138.0Y-110.0
X138.0Y-120.0
X140.0Y-110.0
X140.0Y-120.0
X142.0Y-110.0
X142.0Y-120.0
X144.0Y-110.0
X144.0Y-120.0
T3
X153.0Y-78.0
X153.0Y-80.54
X153.0Y-83.08
X153.0Y-85.62
X153.0Y-88.16
T4
X140.0Y-52.5
X140.0Y-127.5
M30
